<svg width="387" height="52" viewBox="0 0 387 52" fill="none" xmlns="http://www.w3.org/2000/svg">
<path d="M11.5977 18H0.417969V16.4414L6.32422 9.87891C7.19922 8.88672 7.80078 8.08203 8.12891 7.46484C8.46484 6.83984 8.63281 6.19531 8.63281 5.53125C8.63281 4.64062 8.36328 3.91016 7.82422 3.33984C7.28516 2.76953 6.56641 2.48438 5.66797 2.48438C4.58984 2.48438 3.75 2.79297 3.14844 3.41016C2.55469 4.01953 2.25781 4.87109 2.25781 5.96484H0.0898438C0.0898438 4.39453 0.59375 3.125 1.60156 2.15625C2.61719 1.1875 3.97266 0.703125 5.66797 0.703125C7.25391 0.703125 8.50781 1.12109 9.42969 1.95703C10.3516 2.78516 10.8125 3.89062 10.8125 5.27344C10.8125 6.95312 9.74219 8.95312 7.60156 11.2734L3.03125 16.2305H11.5977V18ZM24.5938 10.7227C24.5938 13.2617 24.1602 15.1484 23.293 16.3828C22.4258 17.6172 21.0703 18.2344 19.2266 18.2344C17.4062 18.2344 16.0586 17.6328 15.1836 16.4297C14.3086 15.2188 13.8555 13.4141 13.8242 11.0156V8.12109C13.8242 5.61328 14.2578 3.75 15.125 2.53125C15.9922 1.3125 17.3516 0.703125 19.2031 0.703125C21.0391 0.703125 22.3906 1.29297 23.2578 2.47266C24.125 3.64453 24.5703 5.45703 24.5938 7.91016V10.7227ZM22.4258 7.75781C22.4258 5.92188 22.168 4.58594 21.6523 3.75C21.1367 2.90625 20.3203 2.48438 19.2031 2.48438C18.0938 2.48438 17.2852 2.90234 16.7773 3.73828C16.2695 4.57422 16.0078 5.85938 15.9922 7.59375V11.0625C15.9922 12.9062 16.2578 14.2695 16.7891 15.1523C17.3281 16.0273 18.1406 16.4648 19.2266 16.4648C20.2969 16.4648 21.0898 16.0508 21.6055 15.2227C22.1289 14.3945 22.4023 13.0898 22.4258 11.3086V7.75781ZM38.5508 18H27.3711V16.4414L33.2773 9.87891C34.1523 8.88672 34.7539 8.08203 35.082 7.46484C35.418 6.83984 35.5859 6.19531 35.5859 5.53125C35.5859 4.64062 35.3164 3.91016 34.7773 3.33984C34.2383 2.76953 33.5195 2.48438 32.6211 2.48438C31.543 2.48438 30.7031 2.79297 30.1016 3.41016C29.5078 4.01953 29.2109 4.87109 29.2109 5.96484H27.043C27.043 4.39453 27.5469 3.125 28.5547 2.15625C29.5703 1.1875 30.9258 0.703125 32.6211 0.703125C34.207 0.703125 35.4609 1.12109 36.3828 1.95703C37.3047 2.78516 37.7656 3.89062 37.7656 5.27344C37.7656 6.95312 36.6953 8.95312 34.5547 11.2734L29.9844 16.2305H38.5508V18ZM51.5469 10.7227C51.5469 13.2617 51.1133 15.1484 50.2461 16.3828C49.3789 17.6172 48.0234 18.2344 46.1797 18.2344C44.3594 18.2344 43.0117 17.6328 42.1367 16.4297C41.2617 15.2188 40.8086 13.4141 40.7773 11.0156V8.12109C40.7773 5.61328 41.2109 3.75 42.0781 2.53125C42.9453 1.3125 44.3047 0.703125 46.1562 0.703125C47.9922 0.703125 49.3438 1.29297 50.2109 2.47266C51.0781 3.64453 51.5234 5.45703 51.5469 7.91016V10.7227ZM49.3789 7.75781C49.3789 5.92188 49.1211 4.58594 48.6055 3.75C48.0898 2.90625 47.2734 2.48438 46.1562 2.48438C45.0469 2.48438 44.2383 2.90234 43.7305 3.73828C43.2227 4.57422 42.9609 5.85938 42.9453 7.59375V11.0625C42.9453 12.9062 43.2109 14.2695 43.7422 15.1523C44.2812 16.0273 45.0938 16.4648 46.1797 16.4648C47.25 16.4648 48.043 16.0508 48.5586 15.2227C49.082 14.3945 49.3555 13.0898 49.3789 11.3086V7.75781ZM59.0586 11.6367H53.3398V9.86719H59.0586V11.6367ZM72.1367 18H60.957V16.4414L66.8633 9.87891C67.7383 8.88672 68.3398 8.08203 68.668 7.46484C69.0039 6.83984 69.1719 6.19531 69.1719 5.53125C69.1719 4.64062 68.9023 3.91016 68.3633 3.33984C67.8242 2.76953 67.1055 2.48438 66.207 2.48438C65.1289 2.48438 64.2891 2.79297 63.6875 3.41016C63.0938 4.01953 62.7969 4.87109 62.7969 5.96484H60.6289C60.6289 4.39453 61.1328 3.125 62.1406 2.15625C63.1562 1.1875 64.5117 0.703125 66.207 0.703125C67.793 0.703125 69.0469 1.12109 69.9688 1.95703C70.8906 2.78516 71.3516 3.89062 71.3516 5.27344C71.3516 6.95312 70.2812 8.95312 68.1406 11.2734L63.5703 16.2305H72.1367V18ZM85.1328 10.7227C85.1328 13.2617 84.6992 15.1484 83.832 16.3828C82.9648 17.6172 81.6094 18.2344 79.7656 18.2344C77.9453 18.2344 76.5977 17.6328 75.7227 16.4297C74.8477 15.2188 74.3945 13.4141 74.3633 11.0156V8.12109C74.3633 5.61328 74.7969 3.75 75.6641 2.53125C76.5312 1.3125 77.8906 0.703125 79.7422 0.703125C81.5781 0.703125 82.9297 1.29297 83.7969 2.47266C84.6641 3.64453 85.1094 5.45703 85.1328 7.91016V10.7227ZM82.9648 7.75781C82.9648 5.92188 82.707 4.58594 82.1914 3.75C81.6758 2.90625 80.8594 2.48438 79.7422 2.48438C78.6328 2.48438 77.8242 2.90234 77.3164 3.73828C76.8086 4.57422 76.5469 5.85938 76.5312 7.59375V11.0625C76.5312 12.9062 76.7969 14.2695 77.3281 15.1523C77.8672 16.0273 78.6797 16.4648 79.7656 16.4648C80.8359 16.4648 81.6289 16.0508 82.1445 15.2227C82.668 14.3945 82.9414 13.0898 82.9648 11.3086V7.75781ZM99.0898 18H87.9102V16.4414L93.8164 9.87891C94.6914 8.88672 95.293 8.08203 95.6211 7.46484C95.957 6.83984 96.125 6.19531 96.125 5.53125C96.125 4.64062 95.8555 3.91016 95.3164 3.33984C94.7773 2.76953 94.0586 2.48438 93.1602 2.48438C92.082 2.48438 91.2422 2.79297 90.6406 3.41016C90.0469 4.01953 89.75 4.87109 89.75 5.96484H87.582C87.582 4.39453 88.0859 3.125 89.0938 2.15625C90.1094 1.1875 91.4648 0.703125 93.1602 0.703125C94.7461 0.703125 96 1.12109 96.9219 1.95703C97.8438 2.78516 98.3047 3.89062 98.3047 5.27344C98.3047 6.95312 97.2344 8.95312 95.0938 11.2734L90.5234 16.2305H99.0898V18ZM108.512 18H106.332V3.55078L101.961 5.15625V3.1875L108.172 0.855469H108.512V18ZM131.41 18H129.242V7.11328H123.406V18H121.227V5.32031H131.41V18ZM145.602 11.8008C145.602 13.7305 145.16 15.2852 144.277 16.4648C143.395 17.6445 142.199 18.2344 140.691 18.2344C139.152 18.2344 137.941 17.7461 137.059 16.7695V22.875H134.891V5.32031H136.871L136.977 6.72656C137.859 5.63281 139.086 5.08594 140.656 5.08594C142.18 5.08594 143.383 5.66016 144.266 6.80859C145.156 7.95703 145.602 9.55469 145.602 11.6016V11.8008ZM143.434 11.5547C143.434 10.125 143.129 8.99609 142.52 8.16797C141.91 7.33984 141.074 6.92578 140.012 6.92578C138.699 6.92578 137.715 7.50781 137.059 8.67188V14.7305C137.707 15.8867 138.699 16.4648 140.035 16.4648C141.074 16.4648 141.898 16.0547 142.508 15.2344C143.125 14.4062 143.434 13.1797 143.434 11.5547ZM147.793 11.543C147.793 10.3008 148.035 9.18359 148.52 8.19141C149.012 7.19922 149.691 6.43359 150.559 5.89453C151.434 5.35547 152.43 5.08594 153.547 5.08594C155.273 5.08594 156.668 5.68359 157.73 6.87891C158.801 8.07422 159.336 9.66406 159.336 11.6484V11.8008C159.336 13.0352 159.098 14.1445 158.621 15.1289C158.152 16.1055 157.477 16.8672 156.594 17.4141C155.719 17.9609 154.711 18.2344 153.57 18.2344C151.852 18.2344 150.457 17.6367 149.387 16.4414C148.324 15.2461 147.793 13.6641 147.793 11.6953V11.543ZM149.973 11.8008C149.973 13.207 150.297 14.3359 150.945 15.1875C151.602 16.0391 152.477 16.4648 153.57 16.4648C154.672 16.4648 155.547 16.0352 156.195 15.1758C156.844 14.3086 157.168 13.0977 157.168 11.543C157.168 10.1523 156.836 9.02734 156.172 8.16797C155.516 7.30078 154.641 6.86719 153.547 6.86719C152.477 6.86719 151.613 7.29297 150.957 8.14453C150.301 8.99609 149.973 10.2148 149.973 11.8008ZM167.141 16.4648C167.914 16.4648 168.59 16.2305 169.168 15.7617C169.746 15.293 170.066 14.707 170.129 14.0039H172.18C172.141 14.7305 171.891 15.4219 171.43 16.0781C170.969 16.7344 170.352 17.2578 169.578 17.6484C168.812 18.0391 168 18.2344 167.141 18.2344C165.414 18.2344 164.039 17.6602 163.016 16.5117C162 15.3555 161.492 13.7773 161.492 11.7773V11.4141C161.492 10.1797 161.719 9.08203 162.172 8.12109C162.625 7.16016 163.273 6.41406 164.117 5.88281C164.969 5.35156 165.973 5.08594 167.129 5.08594C168.551 5.08594 169.73 5.51172 170.668 6.36328C171.613 7.21484 172.117 8.32031 172.18 9.67969H170.129C170.066 8.85938 169.754 8.1875 169.191 7.66406C168.637 7.13281 167.949 6.86719 167.129 6.86719C166.027 6.86719 165.172 7.26562 164.562 8.0625C163.961 8.85156 163.66 9.99609 163.66 11.4961V11.9062C163.66 13.3672 163.961 14.4922 164.562 15.2812C165.164 16.0703 166.023 16.4648 167.141 16.4648ZM184.039 7.07812H179.785V18H177.617V7.07812H173.445V5.32031H184.039V7.07812ZM188.516 9.69141H191.809C193.246 9.70703 194.383 10.082 195.219 10.8164C196.055 11.5508 196.473 12.5469 196.473 13.8047C196.473 15.0703 196.043 16.0859 195.184 16.8516C194.324 17.6172 193.168 18 191.715 18H186.348V5.32031H188.516V9.69141ZM200.996 18H198.816V5.32031H200.996V18ZM188.516 11.4609V16.2305H191.738C192.551 16.2305 193.18 16.0234 193.625 15.6094C194.07 15.1875 194.293 14.6133 194.293 13.8867C194.293 13.1836 194.074 12.6094 193.637 12.1641C193.207 11.7109 192.602 11.4766 191.82 11.4609H188.516ZM210.043 18.2344C208.324 18.2344 206.926 17.6719 205.848 16.5469C204.77 15.4141 204.23 13.9023 204.23 12.0117V11.6133C204.23 10.3555 204.469 9.23438 204.945 8.25C205.43 7.25781 206.102 6.48438 206.961 5.92969C207.828 5.36719 208.766 5.08594 209.773 5.08594C211.422 5.08594 212.703 5.62891 213.617 6.71484C214.531 7.80078 214.988 9.35547 214.988 11.3789V12.2812H206.398C206.43 13.5312 206.793 14.543 207.488 15.3164C208.191 16.082 209.082 16.4648 210.16 16.4648C210.926 16.4648 211.574 16.3086 212.105 15.9961C212.637 15.6836 213.102 15.2695 213.5 14.7539L214.824 15.7852C213.762 17.418 212.168 18.2344 210.043 18.2344ZM209.773 6.86719C208.898 6.86719 208.164 7.1875 207.57 7.82812C206.977 8.46094 206.609 9.35156 206.469 10.5H212.82V10.3359C212.758 9.23438 212.461 8.38281 211.93 7.78125C211.398 7.17188 210.68 6.86719 209.773 6.86719ZM228.219 11.8008C228.219 13.7305 227.777 15.2852 226.895 16.4648C226.012 17.6445 224.816 18.2344 223.309 18.2344C221.77 18.2344 220.559 17.7461 219.676 16.7695V22.875H217.508V5.32031H219.488L219.594 6.72656C220.477 5.63281 221.703 5.08594 223.273 5.08594C224.797 5.08594 226 5.66016 226.883 6.80859C227.773 7.95703 228.219 9.55469 228.219 11.6016V11.8008ZM226.051 11.5547C226.051 10.125 225.746 8.99609 225.137 8.16797C224.527 7.33984 223.691 6.92578 222.629 6.92578C221.316 6.92578 220.332 7.50781 219.676 8.67188V14.7305C220.324 15.8867 221.316 16.4648 222.652 16.4648C223.691 16.4648 224.516 16.0547 225.125 15.2344C225.742 14.4062 226.051 13.1797 226.051 11.5547ZM236.246 18.2344C234.527 18.2344 233.129 17.6719 232.051 16.5469C230.973 15.4141 230.434 13.9023 230.434 12.0117V11.6133C230.434 10.3555 230.672 9.23438 231.148 8.25C231.633 7.25781 232.305 6.48438 233.164 5.92969C234.031 5.36719 234.969 5.08594 235.977 5.08594C237.625 5.08594 238.906 5.62891 239.82 6.71484C240.734 7.80078 241.191 9.35547 241.191 11.3789V12.2812H232.602C232.633 13.5312 232.996 14.543 233.691 15.3164C234.395 16.082 235.285 16.4648 236.363 16.4648C237.129 16.4648 237.777 16.3086 238.309 15.9961C238.84 15.6836 239.305 15.2695 239.703 14.7539L241.027 15.7852C239.965 17.418 238.371 18.2344 236.246 18.2344ZM235.977 6.86719C235.102 6.86719 234.367 7.1875 233.773 7.82812C233.18 8.46094 232.812 9.35156 232.672 10.5H239.023V10.3359C238.961 9.23438 238.664 8.38281 238.133 7.78125C237.602 7.17188 236.883 6.86719 235.977 6.86719ZM243.898 5.32031H246.078V16.2305H251.914V5.32031H254.082V16.2305H255.594L255.383 21.7617H253.438V18H243.898V5.32031ZM263.199 18.2344C261.48 18.2344 260.082 17.6719 259.004 16.5469C257.926 15.4141 257.387 13.9023 257.387 12.0117V11.6133C257.387 10.3555 257.625 9.23438 258.102 8.25C258.586 7.25781 259.258 6.48438 260.117 5.92969C260.984 5.36719 261.922 5.08594 262.93 5.08594C264.578 5.08594 265.859 5.62891 266.773 6.71484C267.688 7.80078 268.145 9.35547 268.145 11.3789V12.2812H259.555C259.586 13.5312 259.949 14.543 260.645 15.3164C261.348 16.082 262.238 16.4648 263.316 16.4648C264.082 16.4648 264.73 16.3086 265.262 15.9961C265.793 15.6836 266.258 15.2695 266.656 14.7539L267.98 15.7852C266.918 17.418 265.324 18.2344 263.199 18.2344ZM262.93 6.86719C262.055 6.86719 261.32 7.1875 260.727 7.82812C260.133 8.46094 259.766 9.35156 259.625 10.5H265.977V10.3359C265.914 9.23438 265.617 8.38281 265.086 7.78125C264.555 7.17188 263.836 6.86719 262.93 6.86719ZM281.035 18H278.867V7.11328H273.031V18H270.852V5.32031H281.035V18ZM293.938 7.07812H289.684V18H287.516V7.07812H283.344V5.32031H293.938V7.07812ZM298.414 9.69141H301.707C303.145 9.70703 304.281 10.082 305.117 10.8164C305.953 11.5508 306.371 12.5469 306.371 13.8047C306.371 15.0703 305.941 16.0859 305.082 16.8516C304.223 17.6172 303.066 18 301.613 18H296.246V5.32031H298.414V9.69141ZM310.895 18H308.715V5.32031H310.895V18ZM298.414 11.4609V16.2305H301.637C302.449 16.2305 303.078 16.0234 303.523 15.6094C303.969 15.1875 304.191 14.6133 304.191 13.8867C304.191 13.1836 303.973 12.6094 303.535 12.1641C303.105 11.7109 302.5 11.4766 301.719 11.4609H298.414ZM314.727 16.8633C314.727 16.4883 314.836 16.1758 315.055 15.9258C315.281 15.6758 315.617 15.5508 316.062 15.5508C316.508 15.5508 316.844 15.6758 317.07 15.9258C317.305 16.1758 317.422 16.4883 317.422 16.8633C317.422 17.2227 317.305 17.5234 317.07 17.7656C316.844 18.0078 316.508 18.1289 316.062 18.1289C315.617 18.1289 315.281 18.0078 315.055 17.7656C314.836 17.5234 314.727 17.2227 314.727 16.8633ZM331.719 11.8008C331.719 13.7305 331.277 15.2852 330.395 16.4648C329.512 17.6445 328.316 18.2344 326.809 18.2344C325.27 18.2344 324.059 17.7461 323.176 16.7695V22.875H321.008V5.32031H322.988L323.094 6.72656C323.977 5.63281 325.203 5.08594 326.773 5.08594C328.297 5.08594 329.5 5.66016 330.383 6.80859C331.273 7.95703 331.719 9.55469 331.719 11.6016V11.8008ZM329.551 11.5547C329.551 10.125 329.246 8.99609 328.637 8.16797C328.027 7.33984 327.191 6.92578 326.129 6.92578C324.816 6.92578 323.832 7.50781 323.176 8.67188V14.7305C323.824 15.8867 324.816 16.4648 326.152 16.4648C327.191 16.4648 328.016 16.0547 328.625 15.2344C329.242 14.4062 329.551 13.1797 329.551 11.5547ZM338.492 14.8242L341.445 5.32031H343.766L338.668 19.957C337.879 22.0664 336.625 23.1211 334.906 23.1211L334.496 23.0859L333.688 22.9336V21.1758L334.273 21.2227C335.008 21.2227 335.578 21.0742 335.984 20.7773C336.398 20.4805 336.738 19.9375 337.004 19.1484L337.484 17.8594L332.961 5.32031H335.328L338.492 14.8242ZM356.176 11.6367H350.457V9.86719H356.176V11.6367ZM0.839844 46V33.3203H5.78516C7.47266 33.3203 8.76562 33.6172 9.66406 34.2109C10.5703 34.7969 11.0234 35.6602 11.0234 36.8008C11.0234 37.3867 10.8477 37.918 10.4961 38.3945C10.1445 38.8633 9.625 39.2227 8.9375 39.4727C9.70312 39.6523 10.3164 40.0039 10.7773 40.5273C11.2461 41.0508 11.4805 41.6758 11.4805 42.4023C11.4805 43.5664 11.0508 44.457 10.1914 45.0742C9.33984 45.6914 8.13281 46 6.57031 46H0.839844ZM3.00781 40.4336V44.2539H6.59375C7.5 44.2539 8.17578 44.0859 8.62109 43.75C9.07422 43.4141 9.30078 42.9414 9.30078 42.332C9.30078 41.0664 8.37109 40.4336 6.51172 40.4336H3.00781ZM3.00781 38.6992H5.80859C7.83984 38.6992 8.85547 38.1055 8.85547 36.918C8.85547 35.7305 7.89453 35.1172 5.97266 35.0781H3.00781V38.6992ZM18.3008 40.5977H16.7188V46H14.5391V33.3203H16.7188V38.6875H18.1367L22.4023 33.3203H25.0273L20.0117 39.4141L25.4492 46H22.6953L18.3008 40.5977ZM31.4609 42.8242L34.4141 33.3203H36.7344L31.6367 47.957C30.8477 50.0664 29.5938 51.1211 27.875 51.1211L27.4648 51.0859L26.6562 50.9336V49.1758L27.2422 49.2227C27.9766 49.2227 28.5469 49.0742 28.9531 48.7773C29.3672 48.4805 29.707 47.9375 29.9727 47.1484L30.4531 45.8594L25.9297 33.3203H28.2969L31.4609 42.8242ZM43.6016 44.4648C44.375 44.4648 45.0508 44.2305 45.6289 43.7617C46.207 43.293 46.5273 42.707 46.5898 42.0039H48.6406C48.6016 42.7305 48.3516 43.4219 47.8906 44.0781C47.4297 44.7344 46.8125 45.2578 46.0391 45.6484C45.2734 46.0391 44.4609 46.2344 43.6016 46.2344C41.875 46.2344 40.5 45.6602 39.4766 44.5117C38.4609 43.3555 37.9531 41.7773 37.9531 39.7773V39.4141C37.9531 38.1797 38.1797 37.082 38.6328 36.1211C39.0859 35.1602 39.7344 34.4141 40.5781 33.8828C41.4297 33.3516 42.4336 33.0859 43.5898 33.0859C45.0117 33.0859 46.1914 33.5117 47.1289 34.3633C48.0742 35.2148 48.5781 36.3203 48.6406 37.6797H46.5898C46.5273 36.8594 46.2148 36.1875 45.6523 35.6641C45.0977 35.1328 44.4102 34.8672 43.5898 34.8672C42.4883 34.8672 41.6328 35.2656 41.0234 36.0625C40.4219 36.8516 40.1211 37.9961 40.1211 39.4961V39.9062C40.1211 41.3672 40.4219 42.4922 41.0234 43.2812C41.625 44.0703 42.4844 44.4648 43.6016 44.4648ZM61.4375 46H59.2695V40.5859H53.4453V46H51.2656V33.3203H53.4453V38.8164H59.2695V33.3203H61.4375V46ZM67.2969 37.6914H70.5898C72.0273 37.707 73.1641 38.082 74 38.8164C74.8359 39.5508 75.2539 40.5469 75.2539 41.8047C75.2539 43.0703 74.8242 44.0859 73.9648 44.8516C73.1055 45.6172 71.9492 46 70.4961 46H65.1289V33.3203H67.2969V37.6914ZM79.7773 46H77.5977V33.3203H79.7773V46ZM67.2969 39.4609V44.2305H70.5195C71.332 44.2305 71.9609 44.0234 72.4062 43.6094C72.8516 43.1875 73.0742 42.6133 73.0742 41.8867C73.0742 41.1836 72.8555 40.6094 72.418 40.1641C71.9883 39.7109 71.3828 39.4766 70.6016 39.4609H67.2969ZM88.8242 46.2344C87.1055 46.2344 85.707 45.6719 84.6289 44.5469C83.5508 43.4141 83.0117 41.9023 83.0117 40.0117V39.6133C83.0117 38.3555 83.25 37.2344 83.7266 36.25C84.2109 35.2578 84.8828 34.4844 85.7422 33.9297C86.6094 33.3672 87.5469 33.0859 88.5547 33.0859C90.2031 33.0859 91.4844 33.6289 92.3984 34.7148C93.3125 35.8008 93.7695 37.3555 93.7695 39.3789V40.2812H85.1797C85.2109 41.5312 85.5742 42.543 86.2695 43.3164C86.9727 44.082 87.8633 44.4648 88.9414 44.4648C89.707 44.4648 90.3555 44.3086 90.8867 43.9961C91.418 43.6836 91.8828 43.2695 92.2812 42.7539L93.6055 43.7852C92.543 45.418 90.9492 46.2344 88.8242 46.2344ZM88.5547 34.8672C87.6797 34.8672 86.9453 35.1875 86.3516 35.8281C85.7578 36.4609 85.3906 37.3516 85.25 38.5H91.6016V38.3359C91.5391 37.2344 91.2422 36.3828 90.7109 35.7812C90.1797 35.1719 89.4609 34.8672 88.5547 34.8672ZM112.953 39.8008C112.953 41.7305 112.512 43.2852 111.629 44.4648C110.746 45.6445 109.551 46.2344 108.043 46.2344C106.504 46.2344 105.293 45.7461 104.41 44.7695V50.875H102.242V33.3203H104.223L104.328 34.7266C105.211 33.6328 106.438 33.0859 108.008 33.0859C109.531 33.0859 110.734 33.6602 111.617 34.8086C112.508 35.957 112.953 37.5547 112.953 39.6016V39.8008ZM110.785 39.5547C110.785 38.125 110.48 36.9961 109.871 36.168C109.262 35.3398 108.426 34.9258 107.363 34.9258C106.051 34.9258 105.066 35.5078 104.41 36.6719V42.7305C105.059 43.8867 106.051 44.4648 107.387 44.4648C108.426 44.4648 109.25 44.0547 109.859 43.2344C110.477 42.4062 110.785 41.1797 110.785 39.5547ZM120.98 46.2344C119.262 46.2344 117.863 45.6719 116.785 44.5469C115.707 43.4141 115.168 41.9023 115.168 40.0117V39.6133C115.168 38.3555 115.406 37.2344 115.883 36.25C116.367 35.2578 117.039 34.4844 117.898 33.9297C118.766 33.3672 119.703 33.0859 120.711 33.0859C122.359 33.0859 123.641 33.6289 124.555 34.7148C125.469 35.8008 125.926 37.3555 125.926 39.3789V40.2812H117.336C117.367 41.5312 117.73 42.543 118.426 43.3164C119.129 44.082 120.02 44.4648 121.098 44.4648C121.863 44.4648 122.512 44.3086 123.043 43.9961C123.574 43.6836 124.039 43.2695 124.438 42.7539L125.762 43.7852C124.699 45.418 123.105 46.2344 120.98 46.2344ZM120.711 34.8672C119.836 34.8672 119.102 35.1875 118.508 35.8281C117.914 36.4609 117.547 37.3516 117.406 38.5H123.758V38.3359C123.695 37.2344 123.398 36.3828 122.867 35.7812C122.336 35.1719 121.617 34.8672 120.711 34.8672ZM128.633 33.3203H130.812V44.2305H136.648V33.3203H138.816V44.2305H140.328L140.117 49.7617H138.172V46H128.633V33.3203ZM147.934 46.2344C146.215 46.2344 144.816 45.6719 143.738 44.5469C142.66 43.4141 142.121 41.9023 142.121 40.0117V39.6133C142.121 38.3555 142.359 37.2344 142.836 36.25C143.32 35.2578 143.992 34.4844 144.852 33.9297C145.719 33.3672 146.656 33.0859 147.664 33.0859C149.312 33.0859 150.594 33.6289 151.508 34.7148C152.422 35.8008 152.879 37.3555 152.879 39.3789V40.2812H144.289C144.32 41.5312 144.684 42.543 145.379 43.3164C146.082 44.082 146.973 44.4648 148.051 44.4648C148.816 44.4648 149.465 44.3086 149.996 43.9961C150.527 43.6836 150.992 43.2695 151.391 42.7539L152.715 43.7852C151.652 45.418 150.059 46.2344 147.934 46.2344ZM147.664 34.8672C146.789 34.8672 146.055 35.1875 145.461 35.8281C144.867 36.4609 144.5 37.3516 144.359 38.5H150.711V38.3359C150.648 37.2344 150.352 36.3828 149.82 35.7812C149.289 35.1719 148.57 34.8672 147.664 34.8672ZM165.77 46H163.602V35.1133H157.766V46H155.586V33.3203H165.77V46ZM178.672 35.0781H174.418V46H172.25V35.0781H168.078V33.3203H178.672V35.0781ZM183.148 37.6914H186.441C187.879 37.707 189.016 38.082 189.852 38.8164C190.688 39.5508 191.105 40.5469 191.105 41.8047C191.105 43.0703 190.676 44.0859 189.816 44.8516C188.957 45.6172 187.801 46 186.348 46H180.98V33.3203H183.148V37.6914ZM195.629 46H193.449V33.3203H195.629V46ZM183.148 39.4609V44.2305H186.371C187.184 44.2305 187.812 44.0234 188.258 43.6094C188.703 43.1875 188.926 42.6133 188.926 41.8867C188.926 41.1836 188.707 40.6094 188.27 40.1641C187.84 39.7109 187.234 39.4766 186.453 39.4609H183.148ZM215.727 46H213.559V40.5859H207.734V46H205.555V33.3203H207.734V38.8164H213.559V33.3203H215.727V46ZM227.047 46C226.922 45.75 226.82 45.3047 226.742 44.6641C225.734 45.7109 224.531 46.2344 223.133 46.2344C221.883 46.2344 220.855 45.8828 220.051 45.1797C219.254 44.4688 218.855 43.5703 218.855 42.4844C218.855 41.1641 219.355 40.1406 220.355 39.4141C221.363 38.6797 222.777 38.3125 224.598 38.3125H226.707V37.3164C226.707 36.5586 226.48 35.957 226.027 35.5117C225.574 35.0586 224.906 34.832 224.023 34.832C223.25 34.832 222.602 35.0273 222.078 35.418C221.555 35.8086 221.293 36.2812 221.293 36.8359H219.113C219.113 36.2031 219.336 35.5938 219.781 35.0078C220.234 34.4141 220.844 33.9453 221.609 33.6016C222.383 33.2578 223.23 33.0859 224.152 33.0859C225.613 33.0859 226.758 33.4531 227.586 34.1875C228.414 34.9141 228.844 35.918 228.875 37.1992V43.0352C228.875 44.1992 229.023 45.125 229.32 45.8125V46H227.047ZM223.449 44.3477C224.129 44.3477 224.773 44.1719 225.383 43.8203C225.992 43.4688 226.434 43.0117 226.707 42.4492V39.8477H225.008C222.352 39.8477 221.023 40.625 221.023 42.1797C221.023 42.8594 221.25 43.3906 221.703 43.7734C222.156 44.1562 222.738 44.3477 223.449 44.3477ZM242.176 40.5977H240.594V46H238.414V33.3203H240.594V38.6875H242.012L246.277 33.3203H248.902L243.887 39.4141L249.324 46H246.57L242.176 40.5977ZM259.016 46C258.891 45.75 258.789 45.3047 258.711 44.6641C257.703 45.7109 256.5 46.2344 255.102 46.2344C253.852 46.2344 252.824 45.8828 252.02 45.1797C251.223 44.4688 250.824 43.5703 250.824 42.4844C250.824 41.1641 251.324 40.1406 252.324 39.4141C253.332 38.6797 254.746 38.3125 256.566 38.3125H258.676V37.3164C258.676 36.5586 258.449 35.957 257.996 35.5117C257.543 35.0586 256.875 34.832 255.992 34.832C255.219 34.832 254.57 35.0273 254.047 35.418C253.523 35.8086 253.262 36.2812 253.262 36.8359H251.082C251.082 36.2031 251.305 35.5938 251.75 35.0078C252.203 34.4141 252.812 33.9453 253.578 33.6016C254.352 33.2578 255.199 33.0859 256.121 33.0859C257.582 33.0859 258.727 33.4531 259.555 34.1875C260.383 34.9141 260.812 35.918 260.844 37.1992V43.0352C260.844 44.1992 260.992 45.125 261.289 45.8125V46H259.016ZM255.418 44.3477C256.098 44.3477 256.742 44.1719 257.352 43.8203C257.961 43.4688 258.402 43.0117 258.676 42.4492V39.8477H256.977C254.32 39.8477 252.992 40.625 252.992 42.1797C252.992 42.8594 253.219 43.3906 253.672 43.7734C254.125 44.1562 254.707 44.3477 255.418 44.3477ZM274.355 40.4922H272.832V46H270.664V40.4922H269.141L265.59 46H262.848L267.383 39.4375L263.281 33.3203H265.906L269.176 38.5703H270.664V33.3203H272.832V38.5703H274.309L277.602 33.3203H280.227L276.113 39.4492L280.648 46H277.906L274.355 40.4922ZM282.512 44.2305L283.262 43.3047C284.105 42.2109 284.586 40.5703 284.703 38.3828L284.902 33.3203H293.07V44.2305H294.699V49.7266H292.531V46H283.684V49.7266H281.516L281.527 44.2305H282.512ZM285.078 44.2305H290.902V35.3242H287L286.871 38.3477C286.738 40.8711 286.141 42.832 285.078 44.2305ZM299.469 37.6914H302.762C304.199 37.707 305.336 38.082 306.172 38.8164C307.008 39.5508 307.426 40.5469 307.426 41.8047C307.426 43.0703 306.996 44.0859 306.137 44.8516C305.277 45.6172 304.121 46 302.668 46H297.301V33.3203H299.469V37.6914ZM311.949 46H309.77V33.3203H311.949V46ZM299.469 39.4609V44.2305H302.691C303.504 44.2305 304.133 44.0234 304.578 43.6094C305.023 43.1875 305.246 42.6133 305.246 41.8867C305.246 41.1836 305.027 40.6094 304.59 40.1641C304.16 39.7109 303.555 39.4766 302.773 39.4609H299.469ZM323.938 33.3203H326.105V46H323.938V36.7539L318.09 46H315.922V33.3203H318.09V42.5781L323.938 33.3203ZM324.523 28.7031C324.523 29.6484 324.199 30.4102 323.551 30.9883C322.91 31.5586 322.066 31.8438 321.02 31.8438C319.973 31.8438 319.125 31.5547 318.477 30.9766C317.828 30.3984 317.504 29.6406 317.504 28.7031H319.273C319.273 29.25 319.422 29.6797 319.719 29.9922C320.016 30.2969 320.449 30.4492 321.02 30.4492C321.566 30.4492 321.992 30.2969 322.297 29.9922C322.609 29.6875 322.766 29.2578 322.766 28.7031H324.523ZM335.434 44.2305L336.184 43.3047C337.027 42.2109 337.508 40.5703 337.625 38.3828L337.824 33.3203H345.992V44.2305H347.621V49.7266H345.453V46H336.605V49.7266H334.438L334.449 44.2305H335.434ZM338 44.2305H343.824V35.3242H339.922L339.793 38.3477C339.66 40.8711 339.062 42.832 338 44.2305ZM355.285 46.2344C353.566 46.2344 352.168 45.6719 351.09 44.5469C350.012 43.4141 349.473 41.9023 349.473 40.0117V39.6133C349.473 38.3555 349.711 37.2344 350.188 36.25C350.672 35.2578 351.344 34.4844 352.203 33.9297C353.07 33.3672 354.008 33.0859 355.016 33.0859C356.664 33.0859 357.945 33.6289 358.859 34.7148C359.773 35.8008 360.23 37.3555 360.23 39.3789V40.2812H351.641C351.672 41.5312 352.035 42.543 352.73 43.3164C353.434 44.082 354.324 44.4648 355.402 44.4648C356.168 44.4648 356.816 44.3086 357.348 43.9961C357.879 43.6836 358.344 43.2695 358.742 42.7539L360.066 43.7852C359.004 45.418 357.41 46.2344 355.285 46.2344ZM355.016 34.8672C354.141 34.8672 353.406 35.1875 352.812 35.8281C352.219 36.4609 351.852 37.3516 351.711 38.5H358.062V38.3359C358 37.2344 357.703 36.3828 357.172 35.7812C356.641 35.1719 355.922 34.8672 355.016 34.8672ZM373.109 46H370.941V40.5859H365.117V46H362.938V33.3203H365.117V38.8164H370.941V33.3203H373.109V46ZM378.969 37.6914H382.262C383.699 37.707 384.836 38.082 385.672 38.8164C386.508 39.5508 386.926 40.5469 386.926 41.8047C386.926 43.0703 386.496 44.0859 385.637 44.8516C384.777 45.6172 383.621 46 382.168 46H376.801V33.3203H378.969V37.6914ZM378.969 39.4609V44.2305H382.191C383.004 44.2305 383.633 44.0234 384.078 43.6094C384.523 43.1875 384.746 42.6133 384.746 41.8867C384.746 41.1836 384.527 40.6094 384.09 40.1641C383.66 39.7109 383.055 39.4766 382.273 39.4609H378.969Z" fill="black" fill-opacity="0.75"/>
</svg>
