<svg width="190" height="70" viewBox="0 0 190 70" fill="none" xmlns="http://www.w3.org/2000/svg">
<rect width="190" height="70" rx="35" fill="#CFCF7F"/>
<path d="M19.0279 29V14.72H29.7479V29H27.9679V16.3H20.8279V29H19.0279ZM42.7368 23.62C42.7368 25.3933 42.2835 26.7667 41.3768 27.74C40.4835 28.7133 39.2701 29.2 37.7368 29.2C36.7901 29.2 35.9435 28.9867 35.1968 28.56C34.4635 28.12 33.8835 27.4867 33.4568 26.66C33.0301 25.82 32.8168 24.8067 32.8168 23.62C32.8168 21.8467 33.2635 20.48 34.1568 19.52C35.0501 18.56 36.2635 18.08 37.7968 18.08C38.7701 18.08 39.6235 18.3 40.3568 18.74C41.1035 19.1667 41.6835 19.7933 42.0968 20.62C42.5235 21.4333 42.7368 22.4333 42.7368 23.62ZM34.6368 23.62C34.6368 24.8867 34.8835 25.8933 35.3768 26.64C35.8835 27.3733 36.6835 27.74 37.7768 27.74C38.8568 27.74 39.6501 27.3733 40.1568 26.64C40.6635 25.8933 40.9168 24.8867 40.9168 23.62C40.9168 22.3533 40.6635 21.36 40.1568 20.64C39.6501 19.92 38.8501 19.56 37.7568 19.56C36.6635 19.56 35.8701 19.92 35.3768 20.64C34.8835 21.36 34.6368 22.3533 34.6368 23.62ZM53.4862 18.28V27.52H55.0462V32.72H53.3462V29H45.8862V32.72H44.2062V27.52H45.0662C45.9862 26.2533 46.6728 24.8133 47.1262 23.2C47.5928 21.5733 47.8328 19.9333 47.8462 18.28H53.4862ZM49.4062 19.66C49.3528 20.5667 49.2128 21.5067 48.9862 22.48C48.7595 23.44 48.4662 24.36 48.1062 25.24C47.7595 26.12 47.3528 26.88 46.8862 27.52H51.7862V19.66H49.4062ZM66.2073 18.28V29H64.4473V19.78H58.9073V29H57.1473V18.28H66.2073ZM71.2877 24.82C71.2877 24.98 71.2811 25.22 71.2677 25.54C71.2544 25.86 71.2344 26.18 71.2077 26.5C71.1944 26.82 71.1811 27.0733 71.1677 27.26L76.9077 18.28H79.0677V29H77.4277V22.68C77.4277 22.4667 77.4277 22.1867 77.4277 21.84C77.4411 21.4933 77.4544 21.1533 77.4677 20.82C77.4811 20.4733 77.4944 20.2133 77.5077 20.04L71.8077 29H69.6277V18.28H71.2877V24.82ZM86.7793 29.2C85.8326 29.2 84.986 29.0067 84.2393 28.62C83.506 28.2333 82.926 27.6333 82.4993 26.82C82.086 26.0067 81.8793 24.9667 81.8793 23.7C81.8793 22.38 82.0993 21.3067 82.5393 20.48C82.9793 19.6533 83.5726 19.0467 84.3193 18.66C85.0793 18.2733 85.9393 18.08 86.8993 18.08C87.446 18.08 87.9726 18.14 88.4793 18.26C88.986 18.3667 89.3993 18.5 89.7193 18.66L89.1793 20.12C88.8593 20 88.486 19.8867 88.0593 19.78C87.6326 19.6733 87.2326 19.62 86.8593 19.62C84.7526 19.62 83.6993 20.9733 83.6993 23.68C83.6993 24.9733 83.9526 25.9667 84.4593 26.66C84.9793 27.34 85.746 27.68 86.7593 27.68C87.346 27.68 87.8593 27.62 88.2993 27.5C88.7526 27.38 89.166 27.2333 89.5393 27.06V28.62C89.1793 28.8067 88.7793 28.9467 88.3393 29.04C87.9126 29.1467 87.3926 29.2 86.7793 29.2ZM96.1487 18.1C97.4553 18.1 98.422 18.3867 99.0487 18.96C99.6753 19.5333 99.9887 20.4467 99.9887 21.7V29H98.7087L98.3687 27.48H98.2887C97.822 28.0667 97.3287 28.5 96.8087 28.78C96.302 29.06 95.5953 29.2 94.6887 29.2C93.7153 29.2 92.9087 28.9467 92.2687 28.44C91.6287 27.92 91.3087 27.1133 91.3087 26.02C91.3087 24.9533 91.7287 24.1333 92.5687 23.56C93.4087 22.9733 94.702 22.6533 96.4487 22.6L98.2687 22.54V21.9C98.2687 21.0067 98.0753 20.3867 97.6887 20.04C97.302 19.6933 96.7553 19.52 96.0487 19.52C95.4887 19.52 94.9553 19.6067 94.4487 19.78C93.942 19.94 93.4687 20.1267 93.0287 20.34L92.4887 19.02C92.9553 18.7667 93.5087 18.5533 94.1487 18.38C94.7887 18.1933 95.4553 18.1 96.1487 18.1ZM96.6687 23.82C95.3353 23.8733 94.4087 24.0867 93.8887 24.46C93.382 24.8333 93.1287 25.36 93.1287 26.04C93.1287 26.64 93.3087 27.08 93.6687 27.36C94.042 27.64 94.5153 27.78 95.0887 27.78C95.9953 27.78 96.7487 27.5333 97.3487 27.04C97.9487 26.5333 98.2487 25.76 98.2487 24.72V23.76L96.6687 23.82ZM110.7 19.76H107.2V29H105.46V19.76H102V18.28H110.7V19.76ZM117.751 22.68C120.538 22.68 121.931 23.6933 121.931 25.72C121.931 26.72 121.591 27.52 120.911 28.12C120.231 28.7067 119.151 29 117.671 29H112.811V18.28H114.571V22.68H117.751ZM120.171 25.82C120.171 25.1667 119.938 24.7267 119.471 24.5C119.018 24.26 118.378 24.14 117.551 24.14H114.571V27.58H117.591C118.338 27.58 118.951 27.4467 119.431 27.18C119.925 26.9133 120.171 26.46 120.171 25.82ZM128.986 29.2C128.04 29.2 127.193 29.0067 126.446 28.62C125.713 28.2333 125.133 27.6333 124.706 26.82C124.293 26.0067 124.086 24.9667 124.086 23.7C124.086 22.38 124.306 21.3067 124.746 20.48C125.186 19.6533 125.78 19.0467 126.526 18.66C127.286 18.2733 128.146 18.08 129.106 18.08C129.653 18.08 130.18 18.14 130.686 18.26C131.193 18.3667 131.606 18.5 131.926 18.66L131.386 20.12C131.066 20 130.693 19.8867 130.266 19.78C129.84 19.6733 129.44 19.62 129.066 19.62C126.96 19.62 125.906 20.9733 125.906 23.68C125.906 24.9733 126.16 25.9667 126.666 26.66C127.186 27.34 127.953 27.68 128.966 27.68C129.553 27.68 130.066 27.62 130.506 27.5C130.96 27.38 131.373 27.2333 131.746 27.06V28.62C131.386 28.8067 130.986 28.9467 130.546 29.04C130.12 29.1467 129.6 29.2 128.986 29.2ZM134.956 29H132.916L135.976 24.5C135.562 24.3933 135.162 24.2267 134.776 24C134.389 23.76 134.076 23.4333 133.836 23.02C133.596 22.5933 133.476 22.0667 133.476 21.44C133.476 20.4133 133.822 19.6333 134.516 19.1C135.209 18.5533 136.129 18.28 137.276 18.28H142.076V29H140.316V24.74H137.716L134.956 29ZM135.176 21.46C135.176 22.0733 135.402 22.5333 135.856 22.84C136.322 23.1333 136.969 23.28 137.796 23.28H140.316V19.74H137.456C136.642 19.74 136.056 19.9 135.696 20.22C135.349 20.54 135.176 20.9533 135.176 21.46ZM151.427 18.28V22.74H157.247V18.28H159.007V29H157.247V24.22H151.427V29H149.667V18.28H151.427ZM166.461 18.1C167.768 18.1 168.735 18.3867 169.361 18.96C169.988 19.5333 170.301 20.4467 170.301 21.7V29H169.021L168.681 27.48H168.601C168.135 28.0667 167.641 28.5 167.121 28.78C166.615 29.06 165.908 29.2 165.001 29.2C164.028 29.2 163.221 28.9467 162.581 28.44C161.941 27.92 161.621 27.1133 161.621 26.02C161.621 24.9533 162.041 24.1333 162.881 23.56C163.721 22.9733 165.015 22.6533 166.761 22.6L168.581 22.54V21.9C168.581 21.0067 168.388 20.3867 168.001 20.04C167.615 19.6933 167.068 19.52 166.361 19.52C165.801 19.52 165.268 19.6067 164.761 19.78C164.255 19.94 163.781 20.1267 163.341 20.34L162.801 19.02C163.268 18.7667 163.821 18.5533 164.461 18.38C165.101 18.1933 165.768 18.1 166.461 18.1ZM166.981 23.82C165.648 23.8733 164.721 24.0867 164.201 24.46C163.695 24.8333 163.441 25.36 163.441 26.04C163.441 26.64 163.621 27.08 163.981 27.36C164.355 27.64 164.828 27.78 165.401 27.78C166.308 27.78 167.061 27.5333 167.661 27.04C168.261 26.5333 168.561 25.76 168.561 24.72V23.76L166.981 23.82ZM45.4907 49.62C45.4907 51.3933 45.0374 52.7667 44.1307 53.74C43.2374 54.7133 42.024 55.2 40.4907 55.2C39.544 55.2 38.6974 54.9867 37.9507 54.56C37.2174 54.12 36.6374 53.4867 36.2107 52.66C35.784 51.82 35.5707 50.8067 35.5707 49.62C35.5707 47.8467 36.0174 46.48 36.9107 45.52C37.804 44.56 39.0174 44.08 40.5507 44.08C41.524 44.08 42.3774 44.3 43.1107 44.74C43.8574 45.1667 44.4374 45.7933 44.8507 46.62C45.2774 47.4333 45.4907 48.4333 45.4907 49.62ZM37.3907 49.62C37.3907 50.8867 37.6374 51.8933 38.1307 52.64C38.6374 53.3733 39.4374 53.74 40.5307 53.74C41.6107 53.74 42.404 53.3733 42.9107 52.64C43.4174 51.8933 43.6707 50.8867 43.6707 49.62C43.6707 48.3533 43.4174 47.36 42.9107 46.64C42.404 45.92 41.604 45.56 40.5107 45.56C39.4174 45.56 38.624 45.92 38.1307 46.64C37.6374 47.36 37.3907 48.3533 37.3907 49.62ZM47.7201 48.56C47.7201 46.2133 48.0734 44.3867 48.7801 43.08C49.4867 41.76 50.6267 40.9333 52.2001 40.6C53.0667 40.4133 53.9134 40.2467 54.7401 40.1C55.5667 39.9533 56.3401 39.82 57.0601 39.7L57.3601 41.24C56.8934 41.3067 56.3667 41.3933 55.7801 41.5C55.1934 41.5933 54.6134 41.6933 54.0401 41.8C53.4667 41.8933 52.9734 41.9867 52.5601 42.08C51.6934 42.2667 51.0067 42.72 50.5001 43.44C49.9934 44.1467 49.7067 45.2533 49.6401 46.76H49.7601C49.9467 46.5067 50.2001 46.2467 50.5201 45.98C50.8534 45.7133 51.2467 45.4867 51.7001 45.3C52.1667 45.1133 52.6934 45.02 53.2801 45.02C54.6667 45.02 55.7134 45.4667 56.4201 46.36C57.1267 47.2533 57.4801 48.4133 57.4801 49.84C57.4801 51.0267 57.2734 52.02 56.8601 52.82C56.4467 53.62 55.8734 54.22 55.1401 54.62C54.4067 55.0067 53.5534 55.2 52.5801 55.2C51.1001 55.2 49.9201 54.6333 49.0401 53.5C48.1601 52.3667 47.7201 50.72 47.7201 48.56ZM52.7201 53.74C53.5867 53.74 54.2867 53.46 54.8201 52.9C55.3534 52.34 55.6201 51.38 55.6201 50.02C55.6201 48.9267 55.4134 48.0667 55.0001 47.44C54.6001 46.8 53.9334 46.48 53.0001 46.48C52.4134 46.48 51.8801 46.6133 51.4001 46.88C50.9201 47.1333 50.5201 47.4267 50.2001 47.76C49.8801 48.0933 49.6534 48.3733 49.5201 48.6C49.5201 49.2533 49.5667 49.8867 49.6601 50.5C49.7534 51.1133 49.9134 51.6667 50.1401 52.16C50.3801 52.64 50.7067 53.0267 51.1201 53.32C51.5467 53.6 52.0801 53.74 52.7201 53.74ZM62.0127 44.28V48.74H67.8327V44.28H69.5927V55H67.8327V50.22H62.0127V55H60.2527V44.28H62.0127ZM82.3071 49.62C82.3071 51.3933 81.8538 52.7667 80.9471 53.74C80.0538 54.7133 78.8404 55.2 77.3071 55.2C76.3604 55.2 75.5138 54.9867 74.7671 54.56C74.0338 54.12 73.4538 53.4867 73.0271 52.66C72.6004 51.82 72.3871 50.8067 72.3871 49.62C72.3871 47.8467 72.8338 46.48 73.7271 45.52C74.6204 44.56 75.8338 44.08 77.3671 44.08C78.3404 44.08 79.1938 44.3 79.9271 44.74C80.6738 45.1667 81.2538 45.7933 81.6671 46.62C82.0938 47.4333 82.3071 48.4333 82.3071 49.62ZM74.2071 49.62C74.2071 50.8867 74.4538 51.8933 74.9471 52.64C75.4538 53.3733 76.2538 53.74 77.3471 53.74C78.4271 53.74 79.2204 53.3733 79.7271 52.64C80.2338 51.8933 80.4871 50.8867 80.4871 49.62C80.4871 48.3533 80.2338 47.36 79.7271 46.64C79.2204 45.92 78.4204 45.56 77.3271 45.56C76.2338 45.56 75.4404 45.92 74.9471 46.64C74.4538 47.36 74.2071 48.3533 74.2071 49.62ZM93.7165 46.98C93.7165 47.6467 93.5165 48.1667 93.1165 48.54C92.7165 48.9133 92.2032 49.1667 91.5765 49.3V49.38C92.2432 49.4733 92.8232 49.7133 93.3165 50.1C93.8098 50.4733 94.0565 51.06 94.0565 51.86C94.0565 52.7667 93.7165 53.52 93.0365 54.12C92.3698 54.7067 91.2632 55 89.7165 55H85.0965V44.28H89.6965C90.4565 44.28 91.1365 44.3667 91.7365 44.54C92.3498 44.7 92.8298 44.98 93.1765 45.38C93.5365 45.7667 93.7165 46.3 93.7165 46.98ZM91.9365 47.2C91.9365 46.6933 91.7498 46.3267 91.3765 46.1C91.0165 45.86 90.4232 45.74 89.5965 45.74H86.8565V48.68H89.2765C91.0498 48.68 91.9365 48.1867 91.9365 47.2ZM92.2365 51.86C92.2365 51.2467 92.0032 50.8067 91.5365 50.54C91.0698 50.2733 90.3832 50.14 89.4765 50.14H86.8565V53.58H89.5165C90.3965 53.58 91.0698 53.4533 91.5365 53.2C92.0032 52.9333 92.2365 52.4867 92.2365 51.86ZM104.78 55H103V45.74H99.8399C99.6666 47.9933 99.4266 49.8133 99.1199 51.2C98.8133 52.5733 98.4066 53.5733 97.8999 54.2C97.3933 54.8267 96.7533 55.14 95.9799 55.14C95.8066 55.14 95.6333 55.1267 95.4599 55.1C95.2999 55.0867 95.1666 55.0533 95.0599 55V53.68C95.1399 53.7067 95.2266 53.7267 95.3199 53.74C95.4133 53.7533 95.5066 53.76 95.5999 53.76C96.3199 53.76 96.8933 52.9933 97.3199 51.46C97.7599 49.9267 98.0933 47.5333 98.3199 44.28H104.78V55ZM112.322 44.08C113.242 44.08 114.029 44.28 114.682 44.68C115.349 45.08 115.856 45.6467 116.202 46.38C116.562 47.1 116.742 47.9467 116.742 48.92V49.98H109.402C109.429 51.1933 109.736 52.12 110.322 52.76C110.922 53.3867 111.756 53.7 112.822 53.7C113.502 53.7 114.102 53.64 114.622 53.52C115.156 53.3867 115.702 53.2 116.262 52.96V54.5C115.716 54.74 115.176 54.9133 114.642 55.02C114.109 55.14 113.476 55.2 112.742 55.2C111.729 55.2 110.829 54.9933 110.042 54.58C109.269 54.1667 108.662 53.5533 108.222 52.74C107.796 51.9133 107.582 50.9067 107.582 49.72C107.582 48.5467 107.776 47.54 108.162 46.7C108.562 45.86 109.116 45.2133 109.822 44.76C110.542 44.3067 111.376 44.08 112.322 44.08ZM112.302 45.52C111.462 45.52 110.796 45.7933 110.302 46.34C109.822 46.8733 109.536 47.62 109.442 48.58H114.902C114.889 47.6733 114.676 46.94 114.262 46.38C113.849 45.8067 113.196 45.52 112.302 45.52ZM121.231 44.28V48.74H127.051V44.28H128.811V55H127.051V50.22H121.231V55H119.471V44.28H121.231ZM133.866 50.82C133.866 50.98 133.859 51.22 133.846 51.54C133.833 51.86 133.813 52.18 133.786 52.5C133.773 52.82 133.759 53.0733 133.746 53.26L139.486 44.28H141.646V55H140.006V48.68C140.006 48.4667 140.006 48.1867 140.006 47.84C140.019 47.4933 140.033 47.1533 140.046 46.82C140.059 46.4733 140.073 46.2133 140.086 46.04L134.386 55H132.206V44.28H133.866V50.82ZM145.717 55H143.677L146.737 50.5C146.324 50.3933 145.924 50.2267 145.537 50C145.151 49.76 144.837 49.4333 144.597 49.02C144.357 48.5933 144.237 48.0667 144.237 47.44C144.237 46.4133 144.584 45.6333 145.277 45.1C145.971 44.5533 146.891 44.28 148.037 44.28H152.837V55H151.077V50.74H148.477L145.717 55ZM145.937 47.46C145.937 48.0733 146.164 48.5333 146.617 48.84C147.084 49.1333 147.731 49.28 148.557 49.28H151.077V45.74H148.217C147.404 45.74 146.817 45.9 146.457 46.22C146.111 46.54 145.937 46.9533 145.937 47.46Z" fill="#4F503E"/>
</svg>
