<svg width="117" height="27" viewBox="0 0 117 27" fill="none" xmlns="http://www.w3.org/2000/svg">
<path d="M22.0091 11.96L16.9691 20.96H11.9291L6.88914 11.96V26H0.409142V0.799998H7.24914L14.4491 14.12L21.6491 0.799998H28.4891V26H22.0091V11.96ZM46.3232 11.06C45.3632 11.06 44.8832 11.54 44.8832 12.5V14.48H51.0032V12.5C51.0032 11.54 50.5232 11.06 49.5632 11.06H46.3232ZM56.5832 25.64C51.9512 26.12 47.7512 26.36 43.9832 26.36C42.3512 26.36 41.0432 25.868 40.0592 24.884C39.0752 23.9 38.5832 22.592 38.5832 20.96V12.32C38.5832 10.52 39.0872 9.116 40.0952 8.108C41.1272 7.076 42.5432 6.56 44.3432 6.56H51.5432C53.3432 6.56 54.7472 7.076 55.7552 8.108C56.7872 9.116 57.3032 10.52 57.3032 12.32V18.98H44.8832V20.42C44.8832 20.78 45.0032 21.08 45.2432 21.32C45.4832 21.56 45.7832 21.68 46.1432 21.68C48.5192 21.68 51.9992 21.5 56.5832 21.14V25.64ZM76.1891 13.94V6.92H82.4891V26H76.1891V18.8H69.7091V26H63.4091V6.92H69.7091V13.94H76.1891ZM97.9649 13.94V12.32C97.9649 10.52 98.4689 9.116 99.4769 8.108C100.509 7.076 101.925 6.56 103.725 6.56H110.565C112.365 6.56 113.769 7.076 114.777 8.108C115.809 9.116 116.325 10.52 116.325 12.32V20.6C116.325 22.4 115.809 23.816 114.777 24.848C113.769 25.856 112.365 26.36 110.565 26.36H103.725C101.925 26.36 100.509 25.856 99.4769 24.848C98.4689 23.816 97.9649 22.4 97.9649 20.6V18.8H95.2649V26H88.9649V6.92H95.2649V13.94H97.9649ZM110.025 12.86C110.025 11.9 109.545 11.42 108.585 11.42H105.705C104.745 11.42 104.265 11.9 104.265 12.86V20.06C104.265 21.02 104.745 21.5 105.705 21.5H108.585C109.545 21.5 110.025 21.02 110.025 20.06V12.86Z" fill="black"/>
</svg>
