<svg width="350" height="130" viewBox="0 0 350 130" fill="none" xmlns="http://www.w3.org/2000/svg">
<g filter="url(#filter0_d)">
<rect x="18" y="18" width="300" height="80" rx="40" fill="#FFF3E2"/>
</g>
<path d="M73.0761 52.136V65H70.9641V53.936H64.3161V65H62.2041V52.136H73.0761ZM82.1486 51.896C83.2526 51.896 84.1966 52.136 84.9806 52.616C85.7806 53.096 86.3886 53.776 86.8046 54.656C87.2366 55.52 87.4526 56.536 87.4526 57.704V58.976H78.6446C78.6766 60.432 79.0446 61.544 79.7486 62.312C80.4686 63.064 81.4686 63.44 82.7486 63.44C83.5646 63.44 84.2846 63.368 84.9086 63.224C85.5486 63.064 86.2046 62.84 86.8766 62.552V64.4C86.2206 64.688 85.5726 64.896 84.9326 65.024C84.2926 65.168 83.5326 65.24 82.6526 65.24C81.4366 65.24 80.3566 64.992 79.4126 64.496C78.4846 64 77.7566 63.264 77.2286 62.288C76.7166 61.296 76.4606 60.088 76.4606 58.664C76.4606 57.256 76.6926 56.048 77.1566 55.04C77.6366 54.032 78.3006 53.256 79.1486 52.712C80.0126 52.168 81.0126 51.896 82.1486 51.896ZM82.1246 53.624C81.1166 53.624 80.3166 53.952 79.7246 54.608C79.1486 55.248 78.8046 56.144 78.6926 57.296H85.2446C85.2286 56.208 84.9726 55.328 84.4766 54.656C83.9806 53.968 83.1966 53.624 82.1246 53.624ZM96.8475 51.896C98.4315 51.896 99.7035 52.448 100.664 53.552C101.64 54.656 102.128 56.32 102.128 58.544C102.128 60.736 101.64 62.4 100.664 63.536C99.7035 64.672 98.4235 65.24 96.8235 65.24C95.8315 65.24 95.0075 65.056 94.3515 64.688C93.7115 64.304 93.2075 63.864 92.8395 63.368H92.6955C92.7275 63.64 92.7595 63.984 92.7915 64.4C92.8235 64.816 92.8395 65.176 92.8395 65.48V70.76H90.7275V52.136H92.4555L92.7435 53.888H92.8395C93.2235 53.328 93.7275 52.856 94.3515 52.472C94.9755 52.088 95.8075 51.896 96.8475 51.896ZM96.4635 53.672C95.1515 53.672 94.2235 54.04 93.6795 54.776C93.1515 55.512 92.8715 56.632 92.8395 58.136V58.544C92.8395 60.128 93.0955 61.352 93.6075 62.216C94.1355 63.064 95.1035 63.488 96.5115 63.488C97.2955 63.488 97.9355 63.272 98.4315 62.84C98.9435 62.408 99.3195 61.824 99.5595 61.088C99.8155 60.336 99.9435 59.48 99.9435 58.52C99.9435 57.048 99.6555 55.872 99.0795 54.992C98.5195 54.112 97.6475 53.672 96.4635 53.672ZM110.461 51.896C111.565 51.896 112.509 52.136 113.293 52.616C114.093 53.096 114.701 53.776 115.117 54.656C115.549 55.52 115.765 56.536 115.765 57.704V58.976H106.957C106.989 60.432 107.357 61.544 108.061 62.312C108.781 63.064 109.781 63.44 111.061 63.44C111.877 63.44 112.597 63.368 113.221 63.224C113.861 63.064 114.517 62.84 115.189 62.552V64.4C114.533 64.688 113.885 64.896 113.245 65.024C112.605 65.168 111.845 65.24 110.965 65.24C109.749 65.24 108.669 64.992 107.725 64.496C106.797 64 106.069 63.264 105.541 62.288C105.029 61.296 104.773 60.088 104.773 58.664C104.773 57.256 105.005 56.048 105.469 55.04C105.949 54.032 106.613 53.256 107.461 52.712C108.325 52.168 109.325 51.896 110.461 51.896ZM110.437 53.624C109.429 53.624 108.629 53.952 108.037 54.608C107.461 55.248 107.117 56.144 107.005 57.296H113.557C113.541 56.208 113.285 55.328 112.789 54.656C112.293 53.968 111.509 53.624 110.437 53.624ZM129.456 46.808C129.344 48.008 128.936 48.92 128.232 49.544C127.544 50.152 126.44 50.456 124.92 50.456C123.352 50.456 122.24 50.152 121.584 49.544C120.944 48.936 120.584 48.024 120.504 46.808H122.472C122.552 47.672 122.776 48.256 123.144 48.56C123.528 48.848 124.136 48.992 124.968 48.992C125.704 48.992 126.28 48.84 126.696 48.536C127.128 48.216 127.384 47.64 127.464 46.808H129.456ZM121.032 59.984C121.032 60.176 121.024 60.464 121.008 60.848C120.992 61.232 120.968 61.616 120.936 62C120.92 62.384 120.904 62.688 120.888 62.912L127.776 52.136H130.368V65H128.4V57.416C128.4 57.16 128.4 56.824 128.4 56.408C128.416 55.992 128.432 55.584 128.448 55.184C128.464 54.768 128.48 54.456 128.496 54.248L121.656 65H119.04V52.136H121.032V59.984ZM143.342 53.912H139.142V65H137.054V53.912H132.902V52.136H143.342V53.912ZM147.868 59.984C147.868 60.176 147.86 60.464 147.844 60.848C147.828 61.232 147.804 61.616 147.772 62C147.756 62.384 147.74 62.688 147.724 62.912L154.612 52.136H157.204V65H155.236V57.416C155.236 57.16 155.236 56.824 155.236 56.408C155.252 55.992 155.268 55.584 155.284 55.184C155.3 54.768 155.316 54.456 155.332 54.248L148.492 65H145.876V52.136H147.868V59.984ZM173.945 52.136H176.249L170.753 58.328L176.705 65H174.257L168.449 58.472V65H166.337V52.136H168.449V58.376L173.945 52.136ZM197.879 52.136V65H195.983V56.792C195.983 56.456 195.991 56.104 196.007 55.736C196.039 55.368 196.071 55.008 196.103 54.656H196.031L191.831 65H190.055L185.975 54.656H185.903C185.951 55.376 185.975 56.112 185.975 56.864V65H184.079V52.136H186.887L190.943 62.48L195.071 52.136H197.879ZM206.953 51.896C208.057 51.896 209.001 52.136 209.785 52.616C210.585 53.096 211.193 53.776 211.609 54.656C212.041 55.52 212.257 56.536 212.257 57.704V58.976H203.449C203.481 60.432 203.849 61.544 204.553 62.312C205.273 63.064 206.273 63.44 207.553 63.44C208.369 63.44 209.089 63.368 209.713 63.224C210.353 63.064 211.009 62.84 211.681 62.552V64.4C211.025 64.688 210.377 64.896 209.737 65.024C209.097 65.168 208.337 65.24 207.457 65.24C206.241 65.24 205.161 64.992 204.217 64.496C203.289 64 202.561 63.264 202.033 62.288C201.521 61.296 201.265 60.088 201.265 58.664C201.265 57.256 201.497 56.048 201.961 55.04C202.441 54.032 203.105 53.256 203.953 52.712C204.817 52.168 205.817 51.896 206.953 51.896ZM206.929 53.624C205.921 53.624 205.121 53.952 204.529 54.608C203.953 55.248 203.609 56.144 203.497 57.296H210.049C210.033 56.208 209.777 55.328 209.281 54.656C208.785 53.968 208.001 53.624 206.929 53.624ZM217.644 52.136V57.488H224.628V52.136H226.74V65H224.628V59.264H217.644V65H215.532V52.136H217.644ZM247.517 58.544C247.517 60.672 247.005 62.32 245.981 63.488C244.957 64.656 243.573 65.24 241.829 65.24C240.197 65.24 238.877 64.728 237.869 63.704C236.877 62.68 236.317 61.2 236.189 59.264H232.925V65H230.813V52.136H232.925V57.488H236.213C236.389 55.68 236.973 54.296 237.965 53.336C238.957 52.376 240.261 51.896 241.877 51.896C242.981 51.896 243.957 52.16 244.805 52.688C245.653 53.2 246.317 53.952 246.797 54.944C247.277 55.92 247.517 57.12 247.517 58.544ZM238.349 58.544C238.349 60.16 238.629 61.392 239.189 62.24C239.749 63.072 240.637 63.488 241.853 63.488C243.085 63.488 243.973 63.072 244.517 62.24C245.061 61.392 245.333 60.16 245.333 58.544C245.333 56.928 245.053 55.712 244.493 54.896C243.949 54.08 243.069 53.672 241.853 53.672C240.637 53.672 239.749 54.08 239.189 54.896C238.629 55.712 238.349 56.928 238.349 58.544Z" fill="black"/>
<defs>
<filter id="filter0_d" x="0" y="0" width="350" height="130" filterUnits="userSpaceOnUse" color-interpolation-filters="sRGB">
<feFlood flood-opacity="0" result="BackgroundImageFix"/>
<feColorMatrix in="SourceAlpha" type="matrix" values="0 0 0 0 0 0 0 0 0 0 0 0 0 0 0 0 0 0 127 0"/>
<feOffset dx="7" dy="7"/>
<feGaussianBlur stdDeviation="12.5"/>
<feColorMatrix type="matrix" values="0 0 0 0 0 0 0 0 0 0 0 0 0 0 0 0 0 0 0.3 0"/>
<feBlend mode="normal" in2="BackgroundImageFix" result="effect1_dropShadow"/>
<feBlend mode="normal" in="SourceGraphic" in2="effect1_dropShadow" result="shape"/>
</filter>
</defs>
</svg>
