<svg width="350" height="130" viewBox="0 0 350 130" fill="none" xmlns="http://www.w3.org/2000/svg">
<g filter="url(#filter0_d)">
<rect x="18" y="18" width="300" height="80" rx="40" fill="#FFF3E2"/>
</g>
<path d="M116.557 35.136V48H114.445V36.936H107.797V48H105.685V35.136H116.557ZM131.845 41.544C131.845 43.672 131.301 45.32 130.213 46.488C129.141 47.656 127.685 48.24 125.845 48.24C124.709 48.24 123.693 47.984 122.797 47.472C121.917 46.944 121.221 46.184 120.709 45.192C120.197 44.184 119.941 42.968 119.941 41.544C119.941 39.416 120.477 37.776 121.549 36.624C122.621 35.472 124.077 34.896 125.917 34.896C127.085 34.896 128.109 35.16 128.989 35.688C129.885 36.2 130.581 36.952 131.077 37.944C131.589 38.92 131.845 40.12 131.845 41.544ZM122.125 41.544C122.125 43.064 122.421 44.272 123.013 45.168C123.621 46.048 124.581 46.488 125.893 46.488C127.189 46.488 128.141 46.048 128.749 45.168C129.357 44.272 129.661 43.064 129.661 41.544C129.661 40.024 129.357 38.832 128.749 37.968C128.141 37.104 127.181 36.672 125.869 36.672C124.557 36.672 123.605 37.104 123.013 37.968C122.421 38.832 122.125 40.024 122.125 41.544ZM137.184 42.984C137.184 43.176 137.176 43.464 137.16 43.848C137.144 44.232 137.12 44.616 137.088 45C137.072 45.384 137.056 45.688 137.04 45.912L143.928 35.136H146.52V48H144.552V40.416C144.552 40.16 144.552 39.824 144.552 39.408C144.568 38.992 144.584 38.584 144.6 38.184C144.616 37.768 144.632 37.456 144.648 37.248L137.808 48H135.192V35.136H137.184V42.984ZM155.774 48.24C154.638 48.24 153.622 48.008 152.726 47.544C151.846 47.08 151.15 46.36 150.638 45.384C150.142 44.408 149.894 43.16 149.894 41.64C149.894 40.056 150.158 38.768 150.686 37.776C151.214 36.784 151.926 36.056 152.822 35.592C153.734 35.128 154.766 34.896 155.918 34.896C156.574 34.896 157.206 34.968 157.814 35.112C158.422 35.24 158.918 35.4 159.302 35.592L158.654 37.344C158.27 37.2 157.822 37.064 157.31 36.936C156.798 36.808 156.318 36.744 155.87 36.744C153.342 36.744 152.078 38.368 152.078 41.616C152.078 43.168 152.382 44.36 152.99 45.192C153.614 46.008 154.534 46.416 155.75 46.416C156.454 46.416 157.07 46.344 157.598 46.2C158.142 46.056 158.638 45.88 159.086 45.672V47.544C158.654 47.768 158.174 47.936 157.646 48.048C157.134 48.176 156.51 48.24 155.774 48.24ZM169.753 35.136H172.057L166.561 41.328L172.513 48H170.065L164.257 41.472V48H162.145V35.136H164.257V41.376L169.753 35.136ZM190.76 35.136V48H188.648V36.936H182V48H179.888V35.136H190.76ZM206.048 41.544C206.048 43.672 205.504 45.32 204.416 46.488C203.344 47.656 201.888 48.24 200.048 48.24C198.912 48.24 197.896 47.984 197 47.472C196.12 46.944 195.424 46.184 194.912 45.192C194.4 44.184 194.144 42.968 194.144 41.544C194.144 39.416 194.68 37.776 195.752 36.624C196.824 35.472 198.28 34.896 200.12 34.896C201.288 34.896 202.312 35.16 203.192 35.688C204.088 36.2 204.784 36.952 205.28 37.944C205.792 38.92 206.048 40.12 206.048 41.544ZM196.328 41.544C196.328 43.064 196.624 44.272 197.216 45.168C197.824 46.048 198.784 46.488 200.096 46.488C201.392 46.488 202.344 46.048 202.952 45.168C203.56 44.272 203.864 43.064 203.864 41.544C203.864 40.024 203.56 38.832 202.952 37.968C202.344 37.104 201.384 36.672 200.072 36.672C198.76 36.672 197.808 37.104 197.216 37.968C196.624 38.832 196.328 40.024 196.328 41.544ZM96.6168 66.136H98.9208L93.4248 72.328L99.3768 79H96.9288L91.1208 72.472V79H89.0088V66.136H91.1208V72.376L96.6168 66.136ZM106.584 65.92C108.152 65.92 109.312 66.264 110.064 66.952C110.816 67.64 111.192 68.736 111.192 70.24V79H109.656L109.248 77.176H109.152C108.592 77.88 108 78.4 107.376 78.736C106.768 79.072 105.92 79.24 104.832 79.24C103.664 79.24 102.696 78.936 101.928 78.328C101.16 77.704 100.776 76.736 100.776 75.424C100.776 74.144 101.28 73.16 102.288 72.472C103.296 71.768 104.848 71.384 106.944 71.32L109.128 71.248V70.48C109.128 69.408 108.896 68.664 108.432 68.248C107.968 67.832 107.312 67.624 106.464 67.624C105.792 67.624 105.152 67.728 104.544 67.936C103.936 68.128 103.368 68.352 102.84 68.608L102.192 67.024C102.752 66.72 103.416 66.464 104.184 66.256C104.952 66.032 105.752 65.92 106.584 65.92ZM107.208 72.784C105.608 72.848 104.496 73.104 103.872 73.552C103.264 74 102.96 74.632 102.96 75.448C102.96 76.168 103.176 76.696 103.608 77.032C104.056 77.368 104.624 77.536 105.312 77.536C106.4 77.536 107.304 77.24 108.024 76.648C108.744 76.04 109.104 75.112 109.104 73.864V72.712L107.208 72.784ZM124.045 67.912H119.845V79H117.757V67.912H113.605V66.136H124.045V67.912ZM131.313 65.896C132.417 65.896 133.361 66.136 134.145 66.616C134.945 67.096 135.553 67.776 135.969 68.656C136.401 69.52 136.617 70.536 136.617 71.704V72.976H127.809C127.841 74.432 128.209 75.544 128.913 76.312C129.633 77.064 130.633 77.44 131.913 77.44C132.729 77.44 133.449 77.368 134.073 77.224C134.713 77.064 135.369 76.84 136.041 76.552V78.4C135.385 78.688 134.737 78.896 134.097 79.024C133.457 79.168 132.697 79.24 131.817 79.24C130.601 79.24 129.521 78.992 128.577 78.496C127.649 78 126.921 77.264 126.393 76.288C125.881 75.296 125.625 74.088 125.625 72.664C125.625 71.256 125.857 70.048 126.321 69.04C126.801 68.032 127.465 67.256 128.313 66.712C129.177 66.168 130.177 65.896 131.313 65.896ZM131.289 67.624C130.281 67.624 129.481 67.952 128.889 68.608C128.313 69.248 127.969 70.144 127.857 71.296H134.409C134.393 70.208 134.137 69.328 133.641 68.656C133.145 67.968 132.361 67.624 131.289 67.624ZM147.74 66.136V67.912H142.004V79H139.892V66.136H147.74ZM161.224 72.544C161.224 74.672 160.68 76.32 159.592 77.488C158.52 78.656 157.064 79.24 155.224 79.24C154.088 79.24 153.072 78.984 152.176 78.472C151.296 77.944 150.6 77.184 150.088 76.192C149.576 75.184 149.32 73.968 149.32 72.544C149.32 70.416 149.856 68.776 150.928 67.624C152 66.472 153.456 65.896 155.296 65.896C156.464 65.896 157.488 66.16 158.368 66.688C159.264 67.2 159.96 67.952 160.456 68.944C160.968 69.92 161.224 71.12 161.224 72.544ZM151.504 72.544C151.504 74.064 151.8 75.272 152.392 76.168C153 77.048 153.96 77.488 155.272 77.488C156.568 77.488 157.52 77.048 158.128 76.168C158.736 75.272 159.04 74.064 159.04 72.544C159.04 71.024 158.736 69.832 158.128 68.968C157.52 68.104 156.56 67.672 155.248 67.672C153.936 67.672 152.984 68.104 152.392 68.968C151.8 69.832 151.504 71.024 151.504 72.544ZM170.691 65.896C172.275 65.896 173.547 66.448 174.507 67.552C175.483 68.656 175.971 70.32 175.971 72.544C175.971 74.736 175.483 76.4 174.507 77.536C173.547 78.672 172.267 79.24 170.667 79.24C169.675 79.24 168.851 79.056 168.195 78.688C167.555 78.304 167.051 77.864 166.683 77.368H166.539C166.571 77.64 166.603 77.984 166.635 78.4C166.667 78.816 166.683 79.176 166.683 79.48V84.76H164.571V66.136H166.299L166.587 67.888H166.683C167.067 67.328 167.571 66.856 168.195 66.472C168.819 66.088 169.651 65.896 170.691 65.896ZM170.307 67.672C168.995 67.672 168.067 68.04 167.523 68.776C166.995 69.512 166.715 70.632 166.683 72.136V72.544C166.683 74.128 166.939 75.352 167.451 76.216C167.979 77.064 168.947 77.488 170.355 77.488C171.139 77.488 171.779 77.272 172.275 76.84C172.787 76.408 173.163 75.824 173.403 75.088C173.659 74.336 173.787 73.48 173.787 72.52C173.787 71.048 173.499 69.872 172.923 68.992C172.363 68.112 171.491 67.672 170.307 67.672ZM181.329 73.984C181.329 74.176 181.321 74.464 181.305 74.848C181.289 75.232 181.265 75.616 181.233 76C181.217 76.384 181.201 76.688 181.185 76.912L188.073 66.136H190.665V79H188.697V71.416C188.697 71.16 188.697 70.824 188.697 70.408C188.713 69.992 188.729 69.584 188.745 69.184C188.761 68.768 188.777 68.456 188.793 68.248L181.953 79H179.337V66.136H181.329V73.984ZM195.551 79H193.103L196.775 73.6C196.279 73.472 195.799 73.272 195.335 73C194.871 72.712 194.495 72.32 194.207 71.824C193.919 71.312 193.775 70.68 193.775 69.928C193.775 68.696 194.191 67.76 195.023 67.12C195.855 66.464 196.959 66.136 198.335 66.136H204.095V79H201.983V73.888H198.863L195.551 79ZM195.815 69.952C195.815 70.688 196.087 71.24 196.631 71.608C197.191 71.96 197.967 72.136 198.959 72.136H201.983V67.888H198.551C197.575 67.888 196.871 68.08 196.439 68.464C196.023 68.848 195.815 69.344 195.815 69.952ZM221.965 66.136V79H220.069V70.792C220.069 70.456 220.077 70.104 220.093 69.736C220.125 69.368 220.157 69.008 220.189 68.656H220.117L215.917 79H214.141L210.061 68.656H209.989C210.037 69.376 210.061 70.112 210.061 70.864V79H208.165V66.136H210.973L215.029 76.48L219.157 66.136H221.965Z" fill="black"/>
<defs>
<filter id="filter0_d" x="0" y="0" width="350" height="130" filterUnits="userSpaceOnUse" color-interpolation-filters="sRGB">
<feFlood flood-opacity="0" result="BackgroundImageFix"/>
<feColorMatrix in="SourceAlpha" type="matrix" values="0 0 0 0 0 0 0 0 0 0 0 0 0 0 0 0 0 0 127 0"/>
<feOffset dx="7" dy="7"/>
<feGaussianBlur stdDeviation="12.5"/>
<feColorMatrix type="matrix" values="0 0 0 0 0 0 0 0 0 0 0 0 0 0 0 0 0 0 0.3 0"/>
<feBlend mode="normal" in2="BackgroundImageFix" result="effect1_dropShadow"/>
<feBlend mode="normal" in="SourceGraphic" in2="effect1_dropShadow" result="shape"/>
</filter>
</defs>
</svg>
