<svg width="203" height="86" viewBox="0 0 203 86" fill="none" xmlns="http://www.w3.org/2000/svg">
<path d="M0.000340462 19V1.864H12.8643V19H10.7283V3.76H2.16034V19H0.000340462ZM30.371 12.544C30.371 14.672 29.827 16.32 28.739 17.488C27.667 18.656 26.211 19.24 24.371 19.24C23.235 19.24 22.219 18.984 21.323 18.472C20.443 17.944 19.747 17.184 19.235 16.192C18.723 15.184 18.467 13.968 18.467 12.544C18.467 10.416 19.003 8.776 20.075 7.624C21.147 6.472 22.603 5.896 24.443 5.896C25.611 5.896 26.635 6.16 27.515 6.688C28.411 7.2 29.107 7.952 29.603 8.944C30.115 9.92 30.371 11.12 30.371 12.544ZM20.651 12.544C20.651 14.064 20.947 15.272 21.539 16.168C22.147 17.048 23.107 17.488 24.419 17.488C25.715 17.488 26.667 17.048 27.275 16.168C27.883 15.272 28.187 14.064 28.187 12.544C28.187 11.024 27.883 9.832 27.275 8.968C26.667 8.104 25.707 7.672 24.395 7.672C23.083 7.672 22.131 8.104 21.539 8.968C20.947 9.832 20.651 11.024 20.651 12.544ZM45.4303 19H43.2943V7.888H39.5023C39.2943 10.592 39.0063 12.776 38.6383 14.44C38.2703 16.088 37.7823 17.288 37.1743 18.04C36.5663 18.792 35.7983 19.168 34.8703 19.168C34.6623 19.168 34.4543 19.152 34.2463 19.12C34.0543 19.104 33.8943 19.064 33.7663 19V17.416C33.8623 17.448 33.9663 17.472 34.0783 17.488C34.1903 17.504 34.3023 17.512 34.4143 17.512C35.2783 17.512 35.9663 16.592 36.4783 14.752C37.0063 12.912 37.4063 10.04 37.6783 6.136H45.4303V19ZM49.4173 6.136H51.6733L54.4573 13.456C54.6973 14.096 54.9133 14.712 55.1053 15.304C55.2973 15.88 55.4413 16.432 55.5373 16.96H55.6333C55.7293 16.56 55.8813 16.04 56.0893 15.4C56.2973 14.744 56.5133 14.088 56.7373 13.432L59.3533 6.136H61.6333L56.0893 20.776C55.6413 21.992 55.0573 22.96 54.3373 23.68C53.6333 24.4 52.6573 24.76 51.4093 24.76C51.0253 24.76 50.6893 24.736 50.4013 24.688C50.1133 24.656 49.8653 24.616 49.6573 24.568V22.888C49.8333 22.92 50.0413 22.952 50.2813 22.984C50.5373 23.016 50.8013 23.032 51.0733 23.032C51.8093 23.032 52.4013 22.824 52.8493 22.408C53.3133 21.992 53.6733 21.44 53.9293 20.752L54.6013 19.048L49.4173 6.136ZM67.4357 10.816C67.4357 12.288 68.2597 13.024 69.9077 13.024C70.7077 13.024 71.4357 12.904 72.0917 12.664C72.7477 12.408 73.4197 12.072 74.1077 11.656V6.136H76.2197V19H74.1077V13.264C73.3877 13.728 72.6757 14.096 71.9717 14.368C71.2837 14.624 70.4517 14.752 69.4757 14.752C68.1637 14.752 67.1397 14.408 66.4037 13.72C65.6837 13.032 65.3237 12.112 65.3237 10.96V6.136H67.4357V10.816ZM87.0984 5.92C88.6664 5.92 89.8264 6.264 90.5784 6.952C91.3304 7.64 91.7064 8.736 91.7064 10.24V19H90.1704L89.7624 17.176H89.6664C89.1064 17.88 88.5144 18.4 87.8904 18.736C87.2824 19.072 86.4344 19.24 85.3464 19.24C84.1784 19.24 83.2104 18.936 82.4424 18.328C81.6744 17.704 81.2904 16.736 81.2904 15.424C81.2904 14.144 81.7944 13.16 82.8024 12.472C83.8104 11.768 85.3624 11.384 87.4584 11.32L89.6424 11.248V10.48C89.6424 9.408 89.4104 8.664 88.9464 8.248C88.4824 7.832 87.8264 7.624 86.9784 7.624C86.3064 7.624 85.6664 7.728 85.0584 7.936C84.4504 8.128 83.8824 8.352 83.3544 8.608L82.7064 7.024C83.2664 6.72 83.9304 6.464 84.6984 6.256C85.4664 6.032 86.2664 5.92 87.0984 5.92ZM87.7224 12.784C86.1224 12.848 85.0104 13.104 84.3864 13.552C83.7784 14 83.4744 14.632 83.4744 15.448C83.4744 16.168 83.6904 16.696 84.1224 17.032C84.5704 17.368 85.1384 17.536 85.8264 17.536C86.9144 17.536 87.8184 17.24 88.5384 16.648C89.2584 16.04 89.6184 15.112 89.6184 13.864V12.712L87.7224 12.784ZM108.016 0.808C107.904 2.008 107.496 2.92 106.792 3.544C106.104 4.152 105 4.456 103.48 4.456C101.912 4.456 100.8 4.152 100.144 3.544C99.5035 2.936 99.1435 2.024 99.0635 0.808H101.032C101.112 1.672 101.336 2.256 101.704 2.56C102.088 2.848 102.696 2.992 103.528 2.992C104.264 2.992 104.84 2.84 105.256 2.536C105.688 2.216 105.944 1.64 106.024 0.808H108.016ZM99.5915 13.984C99.5915 14.176 99.5835 14.464 99.5675 14.848C99.5515 15.232 99.5275 15.616 99.4955 16C99.4795 16.384 99.4635 16.688 99.4475 16.912L106.336 6.136H108.928V19H106.96V11.416C106.96 11.16 106.96 10.824 106.96 10.408C106.976 9.992 106.992 9.584 107.008 9.184C107.024 8.768 107.04 8.456 107.056 8.248L100.216 19H97.5995V6.136H99.5915V13.984ZM124.012 6.136V11.488H130.996V6.136H133.108V19H130.996V13.264H124.012V19H121.9V6.136H124.012ZM150.286 12.544C150.286 14.672 149.742 16.32 148.654 17.488C147.582 18.656 146.126 19.24 144.286 19.24C143.15 19.24 142.134 18.984 141.238 18.472C140.358 17.944 139.662 17.184 139.15 16.192C138.638 15.184 138.382 13.968 138.382 12.544C138.382 10.416 138.918 8.776 139.99 7.624C141.062 6.472 142.518 5.896 144.358 5.896C145.526 5.896 146.55 6.16 147.43 6.688C148.326 7.2 149.022 7.952 149.518 8.944C150.03 9.92 150.286 11.12 150.286 12.544ZM140.566 12.544C140.566 14.064 140.862 15.272 141.454 16.168C142.062 17.048 143.022 17.488 144.334 17.488C145.63 17.488 146.582 17.048 147.19 16.168C147.798 15.272 148.102 14.064 148.102 12.544C148.102 11.024 147.798 9.832 147.19 8.968C146.582 8.104 145.622 7.672 144.31 7.672C142.998 7.672 142.046 8.104 141.454 8.968C140.862 9.832 140.566 11.024 140.566 12.544ZM165.897 9.376C165.897 10.176 165.657 10.8 165.177 11.248C164.697 11.696 164.081 12 163.329 12.16V12.256C164.129 12.368 164.825 12.656 165.417 13.12C166.009 13.568 166.305 14.272 166.305 15.232C166.305 16.32 165.897 17.224 165.081 17.944C164.281 18.648 162.953 19 161.097 19H155.553V6.136H161.073C161.985 6.136 162.801 6.24 163.521 6.448C164.257 6.64 164.833 6.976 165.249 7.456C165.681 7.92 165.897 8.56 165.897 9.376ZM163.761 9.64C163.761 9.032 163.537 8.592 163.089 8.32C162.657 8.032 161.945 7.888 160.953 7.888H157.665V11.416H160.569C162.697 11.416 163.761 10.824 163.761 9.64ZM164.121 15.232C164.121 14.496 163.841 13.968 163.281 13.648C162.721 13.328 161.897 13.168 160.809 13.168H157.665V17.296H160.857C161.913 17.296 162.721 17.144 163.281 16.84C163.841 16.52 164.121 15.984 164.121 15.232ZM171.301 19V6.136H173.413V11.416H176.749C178.413 11.416 179.645 11.72 180.445 12.328C181.245 12.936 181.645 13.848 181.645 15.064C181.645 16.264 181.253 17.224 180.469 17.944C179.685 18.648 178.413 19 176.653 19H171.301ZM183.781 19V6.136H185.893V19H183.781ZM176.461 17.296C177.373 17.296 178.117 17.144 178.693 16.84C179.269 16.52 179.557 15.968 179.557 15.184C179.557 14.4 179.293 13.872 178.765 13.6C178.237 13.312 177.477 13.168 176.485 13.168H173.413V17.296H176.461ZM196.869 5.896C197.973 5.896 198.917 6.136 199.701 6.616C200.501 7.096 201.109 7.776 201.525 8.656C201.957 9.52 202.173 10.536 202.173 11.704V12.976H193.365C193.397 14.432 193.765 15.544 194.469 16.312C195.189 17.064 196.189 17.44 197.469 17.44C198.285 17.44 199.005 17.368 199.629 17.224C200.269 17.064 200.925 16.84 201.597 16.552V18.4C200.941 18.688 200.293 18.896 199.653 19.024C199.013 19.168 198.253 19.24 197.373 19.24C196.157 19.24 195.077 18.992 194.133 18.496C193.205 18 192.477 17.264 191.949 16.288C191.437 15.296 191.181 14.088 191.181 12.664C191.181 11.256 191.413 10.048 191.877 9.04C192.357 8.032 193.021 7.256 193.869 6.712C194.733 6.168 195.733 5.896 196.869 5.896ZM196.845 7.624C195.837 7.624 195.037 7.952 194.445 8.608C193.869 9.248 193.525 10.144 193.413 11.296H199.965C199.949 10.208 199.693 9.328 199.197 8.656C198.701 7.968 197.917 7.624 196.845 7.624ZM51.8931 36.896C53.4771 36.896 54.7491 37.448 55.7091 38.552C56.6851 39.656 57.1731 41.32 57.1731 43.544C57.1731 45.736 56.6851 47.4 55.7091 48.536C54.7491 49.672 53.4691 50.24 51.8691 50.24C50.8771 50.24 50.0531 50.056 49.3971 49.688C48.7571 49.304 48.2531 48.864 47.8851 48.368H47.7411C47.7731 48.64 47.8051 48.984 47.8371 49.4C47.8691 49.816 47.8851 50.176 47.8851 50.48V55.76H45.7731V37.136H47.5011L47.7891 38.888H47.8851C48.2691 38.328 48.7731 37.856 49.3971 37.472C50.0211 37.088 50.8531 36.896 51.8931 36.896ZM51.5091 38.672C50.1971 38.672 49.2691 39.04 48.7251 39.776C48.1971 40.512 47.9171 41.632 47.8851 43.136V43.544C47.8851 45.128 48.1411 46.352 48.6531 47.216C49.1811 48.064 50.1491 48.488 51.5571 48.488C52.3411 48.488 52.9811 48.272 53.4771 47.84C53.9891 47.408 54.3651 46.824 54.6051 46.088C54.8611 45.336 54.9891 44.48 54.9891 43.52C54.9891 42.048 54.7011 40.872 54.1251 39.992C53.5651 39.112 52.6931 38.672 51.5091 38.672ZM67.4267 36.896C68.5307 36.896 69.4747 37.136 70.2587 37.616C71.0587 38.096 71.6667 38.776 72.0827 39.656C72.5147 40.52 72.7307 41.536 72.7307 42.704V43.976H63.9227C63.9547 45.432 64.3227 46.544 65.0267 47.312C65.7467 48.064 66.7467 48.44 68.0267 48.44C68.8427 48.44 69.5627 48.368 70.1867 48.224C70.8267 48.064 71.4827 47.84 72.1547 47.552V49.4C71.4987 49.688 70.8507 49.896 70.2107 50.024C69.5707 50.168 68.8107 50.24 67.9307 50.24C66.7147 50.24 65.6347 49.992 64.6907 49.496C63.7627 49 63.0347 48.264 62.5067 47.288C61.9947 46.296 61.7387 45.088 61.7387 43.664C61.7387 42.256 61.9707 41.048 62.4347 40.04C62.9147 39.032 63.5787 38.256 64.4267 37.712C65.2907 37.168 66.2907 36.896 67.4267 36.896ZM67.4027 38.624C66.3947 38.624 65.5947 38.952 65.0027 39.608C64.4267 40.248 64.0827 41.144 63.9707 42.296H70.5227C70.5067 41.208 70.2507 40.328 69.7547 39.656C69.2587 38.968 68.4747 38.624 67.4027 38.624ZM90.6216 54.464H88.5576V50H77.9256V37.136H80.0376V48.224H86.6856V37.136H88.7976V48.248H90.6216V54.464ZM99.9777 36.896C101.082 36.896 102.026 37.136 102.81 37.616C103.61 38.096 104.218 38.776 104.634 39.656C105.066 40.52 105.282 41.536 105.282 42.704V43.976H96.4737C96.5057 45.432 96.8737 46.544 97.5777 47.312C98.2977 48.064 99.2977 48.44 100.578 48.44C101.394 48.44 102.114 48.368 102.738 48.224C103.378 48.064 104.034 47.84 104.706 47.552V49.4C104.05 49.688 103.402 49.896 102.762 50.024C102.122 50.168 101.362 50.24 100.482 50.24C99.2657 50.24 98.1857 49.992 97.2417 49.496C96.3137 49 95.5857 48.264 95.0577 47.288C94.5457 46.296 94.2897 45.088 94.2897 43.664C94.2897 42.256 94.5217 41.048 94.9857 40.04C95.4657 39.032 96.1297 38.256 96.9777 37.712C97.8417 37.168 98.8417 36.896 99.9777 36.896ZM99.9537 38.624C98.9457 38.624 98.1457 38.952 97.5537 39.608C96.9777 40.248 96.6337 41.144 96.5217 42.296H103.074C103.058 41.208 102.802 40.328 102.306 39.656C101.81 38.968 101.026 38.624 99.9537 38.624ZM121.349 37.136V50H119.237V38.936H112.589V50H110.477V37.136H121.349ZM136.253 38.912H132.053V50H129.965V38.912H125.813V37.136H136.253V38.912ZM140.707 50V37.136H142.819V42.416H146.155C147.819 42.416 149.051 42.72 149.851 43.328C150.651 43.936 151.051 44.848 151.051 46.064C151.051 47.264 150.659 48.224 149.875 48.944C149.091 49.648 147.819 50 146.059 50H140.707ZM153.187 50V37.136H155.299V50H153.187ZM145.867 48.296C146.779 48.296 147.523 48.144 148.099 47.84C148.675 47.52 148.963 46.968 148.963 46.184C148.963 45.4 148.699 44.872 148.171 44.6C147.643 44.312 146.883 44.168 145.891 44.168H142.819V48.296H145.867ZM15.9168 67.896C17.0208 67.896 17.9648 68.136 18.7488 68.616C19.5488 69.096 20.1568 69.776 20.5728 70.656C21.0048 71.52 21.2208 72.536 21.2208 73.704V74.976H12.4128C12.4448 76.432 12.8128 77.544 13.5168 78.312C14.2368 79.064 15.2368 79.44 16.5168 79.44C17.3328 79.44 18.0528 79.368 18.6768 79.224C19.3168 79.064 19.9728 78.84 20.6448 78.552V80.4C19.9888 80.688 19.3408 80.896 18.7008 81.024C18.0608 81.168 17.3008 81.24 16.4208 81.24C15.2048 81.24 14.1248 80.992 13.1808 80.496C12.2528 80 11.5248 79.264 10.9968 78.288C10.4848 77.296 10.2288 76.088 10.2288 74.664C10.2288 73.256 10.4608 72.048 10.9248 71.04C11.4048 70.032 12.0688 69.256 12.9168 68.712C13.7808 68.168 14.7808 67.896 15.9168 67.896ZM15.8928 69.624C14.8848 69.624 14.0848 69.952 13.4928 70.608C12.9168 71.248 12.5728 72.144 12.4608 73.296H19.0128C18.9968 72.208 18.7408 71.328 18.2448 70.656C17.7488 69.968 16.9648 69.624 15.8928 69.624ZM41.8476 68.136L36.5436 74.376L42.3036 81H39.9036L34.3356 74.472V81H32.3676V74.472L26.7996 81H24.3996L30.1596 74.376L24.8556 68.136H27.1596L32.3676 74.376V68.136H34.3356V74.376L39.5676 68.136H41.8476ZM50.8349 67.896C51.9389 67.896 52.8829 68.136 53.6669 68.616C54.4669 69.096 55.0749 69.776 55.4909 70.656C55.9229 71.52 56.1389 72.536 56.1389 73.704V74.976H47.3309C47.3629 76.432 47.7309 77.544 48.4349 78.312C49.1549 79.064 50.1549 79.44 51.4349 79.44C52.2509 79.44 52.9709 79.368 53.5949 79.224C54.2349 79.064 54.8909 78.84 55.5629 78.552V80.4C54.9069 80.688 54.2589 80.896 53.6189 81.024C52.9789 81.168 52.2189 81.24 51.3389 81.24C50.1229 81.24 49.0429 80.992 48.0989 80.496C47.1709 80 46.4429 79.264 45.9149 78.288C45.4029 77.296 45.1469 76.088 45.1469 74.664C45.1469 73.256 45.3789 72.048 45.8429 71.04C46.3229 70.032 46.9869 69.256 47.8349 68.712C48.6989 68.168 49.6989 67.896 50.8349 67.896ZM50.8109 69.624C49.8029 69.624 49.0029 69.952 48.4109 70.608C47.8349 71.248 47.4909 72.144 47.3789 73.296H53.9309C53.9149 72.208 53.6589 71.328 53.1629 70.656C52.6669 69.968 51.8829 69.624 50.8109 69.624ZM63.4458 68.136V73.488H70.4298V68.136H72.5418V81H70.4298V75.264H63.4458V81H61.3338V68.136H63.4458ZM83.503 67.896C84.607 67.896 85.551 68.136 86.335 68.616C87.135 69.096 87.743 69.776 88.159 70.656C88.591 71.52 88.807 72.536 88.807 73.704V74.976H79.999C80.031 76.432 80.399 77.544 81.103 78.312C81.823 79.064 82.823 79.44 84.103 79.44C84.919 79.44 85.639 79.368 86.263 79.224C86.903 79.064 87.559 78.84 88.231 78.552V80.4C87.575 80.688 86.927 80.896 86.287 81.024C85.647 81.168 84.887 81.24 84.007 81.24C82.791 81.24 81.711 80.992 80.767 80.496C79.839 80 79.111 79.264 78.583 78.288C78.071 77.296 77.815 76.088 77.815 74.664C77.815 73.256 78.047 72.048 78.511 71.04C78.991 70.032 79.655 69.256 80.503 68.712C81.367 68.168 82.367 67.896 83.503 67.896ZM83.479 69.624C82.471 69.624 81.671 69.952 81.079 70.608C80.503 71.248 80.159 72.144 80.047 73.296H86.599C86.583 72.208 86.327 71.328 85.831 70.656C85.335 69.968 84.551 69.624 83.479 69.624ZM103.554 68.136V79.224H105.426V85.464H103.386V81H94.4339V85.464H92.4179V79.224H93.4499C94.5539 77.704 95.3779 75.976 95.9219 74.04C96.4819 72.088 96.7699 70.12 96.7859 68.136H103.554ZM98.6579 69.792C98.5939 70.88 98.4259 72.008 98.1539 73.176C97.8819 74.328 97.5299 75.432 97.0979 76.488C96.6819 77.544 96.1939 78.456 95.6339 79.224H101.514V69.792H98.6579ZM114.835 67.896C115.939 67.896 116.883 68.136 117.667 68.616C118.467 69.096 119.075 69.776 119.491 70.656C119.923 71.52 120.139 72.536 120.139 73.704V74.976H111.331C111.363 76.432 111.731 77.544 112.435 78.312C113.155 79.064 114.155 79.44 115.435 79.44C116.251 79.44 116.971 79.368 117.595 79.224C118.235 79.064 118.891 78.84 119.563 78.552V80.4C118.907 80.688 118.259 80.896 117.619 81.024C116.979 81.168 116.219 81.24 115.339 81.24C114.123 81.24 113.043 80.992 112.099 80.496C111.171 80 110.443 79.264 109.915 78.288C109.403 77.296 109.147 76.088 109.147 74.664C109.147 73.256 109.379 72.048 109.843 71.04C110.323 70.032 110.987 69.256 111.835 68.712C112.699 68.168 113.699 67.896 114.835 67.896ZM114.811 69.624C113.803 69.624 113.003 69.952 112.411 70.608C111.835 71.248 111.491 72.144 111.379 73.296H117.931C117.915 72.208 117.659 71.328 117.163 70.656C116.667 69.968 115.883 69.624 114.811 69.624ZM135.126 81H132.99V69.888H129.198C128.99 72.592 128.702 74.776 128.334 76.44C127.966 78.088 127.478 79.288 126.87 80.04C126.262 80.792 125.494 81.168 124.566 81.168C124.358 81.168 124.15 81.152 123.942 81.12C123.75 81.104 123.59 81.064 123.462 81V79.416C123.558 79.448 123.662 79.472 123.774 79.488C123.886 79.504 123.998 79.512 124.11 79.512C124.974 79.512 125.662 78.592 126.174 76.752C126.702 74.912 127.102 72.04 127.374 68.136H135.126V81ZM147.057 73.416C150.401 73.416 152.073 74.632 152.073 77.064C152.073 78.264 151.665 79.224 150.849 79.944C150.033 80.648 148.737 81 146.961 81H141.129V68.136H143.241V73.416H147.057ZM149.961 77.184C149.961 76.4 149.681 75.872 149.121 75.6C148.577 75.312 147.809 75.168 146.817 75.168H143.241V79.296H146.865C147.761 79.296 148.497 79.136 149.073 78.816C149.665 78.496 149.961 77.952 149.961 77.184ZM159.411 68.136V73.488H166.395V68.136H168.507V81H166.395V75.264H159.411V81H157.299V68.136H159.411ZM185.684 74.544C185.684 76.672 185.14 78.32 184.052 79.488C182.98 80.656 181.524 81.24 179.684 81.24C178.548 81.24 177.532 80.984 176.636 80.472C175.756 79.944 175.06 79.184 174.548 78.192C174.036 77.184 173.78 75.968 173.78 74.544C173.78 72.416 174.316 70.776 175.388 69.624C176.46 68.472 177.916 67.896 179.756 67.896C180.924 67.896 181.948 68.16 182.828 68.688C183.724 69.2 184.42 69.952 184.916 70.944C185.428 71.92 185.684 73.12 185.684 74.544ZM175.964 74.544C175.964 76.064 176.26 77.272 176.852 78.168C177.46 79.048 178.42 79.488 179.732 79.488C181.028 79.488 181.98 79.048 182.588 78.168C183.196 77.272 183.5 76.064 183.5 74.544C183.5 73.024 183.196 71.832 182.588 70.968C181.98 70.104 181.02 69.672 179.708 69.672C178.396 69.672 177.444 70.104 176.852 70.968C176.26 71.832 175.964 73.024 175.964 74.544ZM193.353 64.125C193.111 66.3828 192.896 68.5859 192.708 70.7344C192.529 72.8828 192.392 75.0234 192.298 77.1562H190.47C190.447 75 190.372 72.8203 190.247 70.6172C190.122 68.4141 189.935 66.25 189.685 64.125H193.353ZM192.966 79.8984C192.966 80.1094 192.923 80.3086 192.837 80.4961C192.759 80.6758 192.65 80.8359 192.509 80.9766C192.376 81.1172 192.216 81.2266 192.029 81.3047C191.841 81.3906 191.642 81.4336 191.431 81.4336C191.212 81.4336 191.009 81.3906 190.822 81.3047C190.634 81.2266 190.47 81.1172 190.33 80.9766C190.189 80.8359 190.076 80.6758 189.99 80.4961C189.912 80.3086 189.872 80.1094 189.872 79.8984C189.872 79.6797 189.912 79.4766 189.99 79.2891C190.076 79.1016 190.189 78.9375 190.33 78.7969C190.47 78.6562 190.634 78.5469 190.822 78.4688C191.009 78.3828 191.212 78.3398 191.431 78.3398C191.642 78.3398 191.841 78.3828 192.029 78.4688C192.216 78.5469 192.376 78.6562 192.509 78.7969C192.65 78.9375 192.759 79.1016 192.837 79.2891C192.923 79.4766 192.966 79.6797 192.966 79.8984Z" fill="black"/>
</svg>
