<svg width="184" height="98" viewBox="0 0 184 98" fill="none" xmlns="http://www.w3.org/2000/svg">
<path d="M23.8254 20V0.0079987H38.8334V20H36.3414V2.22H26.3454V20H23.8254ZM57.0178 12.468C57.0178 14.9507 56.3832 16.8733 55.1138 18.236C53.8632 19.5987 52.1645 20.28 50.0178 20.28C48.6925 20.28 47.5072 19.9813 46.4618 19.384C45.4352 18.768 44.6232 17.8813 44.0258 16.724C43.4285 15.548 43.1298 14.1293 43.1298 12.468C43.1298 9.98533 43.7552 8.072 45.0058 6.728C46.2565 5.384 47.9552 4.712 50.1018 4.712C51.4645 4.712 52.6592 5.02 53.6858 5.636C54.7312 6.23333 55.5432 7.11067 56.1218 8.268C56.7192 9.40667 57.0178 10.8067 57.0178 12.468ZM45.6778 12.468C45.6778 14.2413 46.0232 15.6507 46.7138 16.696C47.4232 17.7227 48.5432 18.236 50.0738 18.236C51.5858 18.236 52.6965 17.7227 53.4058 16.696C54.1152 15.6507 54.4698 14.2413 54.4698 12.468C54.4698 10.6947 54.1152 9.304 53.4058 8.296C52.6965 7.288 51.5765 6.784 50.0458 6.784C48.5152 6.784 47.4045 7.288 46.7138 8.296C46.0232 9.304 45.6778 10.6947 45.6778 12.468ZM77.023 4.992V20H74.811V10.424C74.811 10.032 74.8203 9.62133 74.839 9.192C74.8763 8.76267 74.9136 8.34267 74.951 7.932H74.867L69.967 20H67.895L63.135 7.932H63.051C63.107 8.772 63.135 9.63067 63.135 10.508V20H60.923V4.992H64.199L68.931 17.06L73.747 4.992H77.023ZM94.8616 12.468C94.8616 14.9507 94.2269 16.8733 92.9576 18.236C91.7069 19.5987 90.0083 20.28 87.8616 20.28C86.5363 20.28 85.3509 19.9813 84.3056 19.384C83.2789 18.768 82.4669 17.8813 81.8696 16.724C81.2723 15.548 80.9736 14.1293 80.9736 12.468C80.9736 9.98533 81.5989 8.072 82.8496 6.728C84.1003 5.384 85.7989 4.712 87.9456 4.712C89.3083 4.712 90.5029 5.02 91.5296 5.636C92.5749 6.23333 93.3869 7.11067 93.9656 8.268C94.5629 9.40667 94.8616 10.8067 94.8616 12.468ZM83.5216 12.468C83.5216 14.2413 83.8669 15.6507 84.5576 16.696C85.2669 17.7227 86.3869 18.236 87.9176 18.236C89.4296 18.236 90.5403 17.7227 91.2496 16.696C91.9589 15.6507 92.3136 14.2413 92.3136 12.468C92.3136 10.6947 91.9589 9.304 91.2496 8.296C90.5403 7.288 89.4203 6.784 87.8896 6.784C86.3589 6.784 85.2483 7.288 84.5576 8.296C83.8669 9.304 83.5216 10.6947 83.5216 12.468ZM107.923 4.992V7.064H101.231V20H98.7667V4.992H107.923ZM116.564 4.74C118.393 4.74 119.747 5.14133 120.624 5.944C121.501 6.74667 121.94 8.02533 121.94 9.78V20H120.148L119.672 17.872H119.56C118.907 18.6933 118.216 19.3 117.488 19.692C116.779 20.084 115.789 20.28 114.52 20.28C113.157 20.28 112.028 19.9253 111.132 19.216C110.236 18.488 109.788 17.3587 109.788 15.828C109.788 14.3347 110.376 13.1867 111.552 12.384C112.728 11.5627 114.539 11.1147 116.984 11.04L119.532 10.956V10.06C119.532 8.80933 119.261 7.94133 118.72 7.456C118.179 6.97067 117.413 6.728 116.424 6.728C115.64 6.728 114.893 6.84933 114.184 7.092C113.475 7.316 112.812 7.57733 112.196 7.876L111.44 6.028C112.093 5.67333 112.868 5.37467 113.764 5.132C114.66 4.87067 115.593 4.74 116.564 4.74ZM117.292 12.748C115.425 12.8227 114.128 13.1213 113.4 13.644C112.691 14.1667 112.336 14.904 112.336 15.856C112.336 16.696 112.588 17.312 113.092 17.704C113.615 18.096 114.277 18.292 115.08 18.292C116.349 18.292 117.404 17.9467 118.244 17.256C119.084 16.5467 119.504 15.464 119.504 14.008V12.664L117.292 12.748ZM132.371 4.712C133.659 4.712 134.761 4.992 135.675 5.552C136.609 6.112 137.318 6.90533 137.803 7.932C138.307 8.94 138.559 10.1253 138.559 11.488V12.972H128.283C128.321 14.6707 128.75 15.968 129.571 16.864C130.411 17.7413 131.578 18.18 133.071 18.18C134.023 18.18 134.863 18.096 135.591 17.928C136.338 17.7413 137.103 17.48 137.887 17.144V19.3C137.122 19.636 136.366 19.8787 135.619 20.028C134.873 20.196 133.986 20.28 132.959 20.28C131.541 20.28 130.281 19.9907 129.179 19.412C128.097 18.8333 127.247 17.9747 126.631 16.836C126.034 15.6787 125.735 14.2693 125.735 12.608C125.735 10.9653 126.006 9.556 126.547 8.38C127.107 7.204 127.882 6.29867 128.871 5.664C129.879 5.02933 131.046 4.712 132.371 4.712ZM132.343 6.728C131.167 6.728 130.234 7.11067 129.543 7.876C128.871 8.62267 128.47 9.668 128.339 11.012H135.983C135.965 9.74267 135.666 8.716 135.087 7.932C134.509 7.12933 133.594 6.728 132.343 6.728ZM158.48 4.992V20H156.268V10.424C156.268 10.032 156.277 9.62133 156.296 9.192C156.333 8.76267 156.371 8.34267 156.408 7.932H156.324L151.424 20H149.352L144.592 7.932H144.508C144.564 8.772 144.592 9.63067 144.592 10.508V20H142.38V4.992H145.656L150.388 17.06L155.204 4.992H158.48ZM14.8582 44.772C14.8582 45.7053 14.5782 46.4333 14.0182 46.956C13.4582 47.4787 12.7395 47.8333 11.8622 48.02V48.132C12.7955 48.2627 13.6075 48.5987 14.2982 49.14C14.9888 49.6627 15.3342 50.484 15.3342 51.604C15.3342 52.8733 14.8582 53.928 13.9062 54.768C12.9728 55.5893 11.4235 56 9.25816 56H2.79016V40.992H9.23016C10.2942 40.992 11.2462 41.1133 12.0862 41.356C12.9448 41.58 13.6168 41.972 14.1022 42.532C14.6062 43.0733 14.8582 43.82 14.8582 44.772ZM12.3662 45.08C12.3662 44.3707 12.1048 43.8573 11.5822 43.54C11.0782 43.204 10.2475 43.036 9.09016 43.036H5.25416V47.152H8.64216C11.1248 47.152 12.3662 46.4613 12.3662 45.08ZM12.7862 51.604C12.7862 50.7453 12.4595 50.1293 11.8062 49.756C11.1528 49.3827 10.1915 49.196 8.92216 49.196H5.25416V54.012H8.97816C10.2102 54.012 11.1528 53.8347 11.8062 53.48C12.4595 53.1067 12.7862 52.4813 12.7862 51.604ZM24.607 40.74C26.4363 40.74 27.7896 41.1413 28.667 41.944C29.5443 42.7467 29.983 44.0253 29.983 45.78V56H28.191L27.715 53.872H27.603C26.9496 54.6933 26.259 55.3 25.531 55.692C24.8216 56.084 23.8323 56.28 22.563 56.28C21.2003 56.28 20.071 55.9253 19.175 55.216C18.279 54.488 17.831 53.3587 17.831 51.828C17.831 50.3347 18.419 49.1867 19.595 48.384C20.771 47.5627 22.5816 47.1147 25.027 47.04L27.575 46.956V46.06C27.575 44.8093 27.3043 43.9413 26.763 43.456C26.2216 42.9707 25.4563 42.728 24.467 42.728C23.683 42.728 22.9363 42.8493 22.227 43.092C21.5176 43.316 20.855 43.5773 20.239 43.876L19.483 42.028C20.1363 41.6733 20.911 41.3747 21.807 41.132C22.703 40.8707 23.6363 40.74 24.607 40.74ZM25.335 48.748C23.4683 48.8227 22.171 49.1213 21.443 49.644C20.7336 50.1667 20.379 50.904 20.379 51.856C20.379 52.696 20.631 53.312 21.135 53.704C21.6576 54.096 22.3203 54.292 23.123 54.292C24.3923 54.292 25.447 53.9467 26.287 53.256C27.127 52.5467 27.547 51.464 27.547 50.008V48.664L25.335 48.748ZM50.7183 40.992V56H48.5063V46.424C48.5063 46.032 48.5156 45.6213 48.5343 45.192C48.5716 44.7627 48.6089 44.3427 48.6463 43.932H48.5623L43.6623 56H41.5903L36.8303 43.932H36.7463C36.8023 44.772 36.8303 45.6307 36.8303 46.508V56H34.6183V40.992H37.8943L42.6263 53.06L47.4423 40.992H50.7183ZM70.5438 40.992V43.064H63.8518V56H61.3878V40.992H70.5438ZM86.2757 48.468C86.2757 50.9507 85.641 52.8733 84.3717 54.236C83.121 55.5987 81.4223 56.28 79.2757 56.28C77.9503 56.28 76.765 55.9813 75.7197 55.384C74.693 54.768 73.881 53.8813 73.2837 52.724C72.6863 51.548 72.3877 50.1293 72.3877 48.468C72.3877 45.9853 73.013 44.072 74.2637 42.728C75.5143 41.384 77.213 40.712 79.3597 40.712C80.7223 40.712 81.917 41.02 82.9437 41.636C83.989 42.2333 84.801 43.1107 85.3797 44.268C85.977 45.4067 86.2757 46.8067 86.2757 48.468ZM74.9357 48.468C74.9357 50.2413 75.281 51.6507 75.9717 52.696C76.681 53.7227 77.801 54.236 79.3317 54.236C80.8437 54.236 81.9543 53.7227 82.6637 52.696C83.373 51.6507 83.7277 50.2413 83.7277 48.468C83.7277 46.6947 83.373 45.304 82.6637 44.296C81.9543 43.288 80.8343 42.784 79.3037 42.784C77.773 42.784 76.6623 43.288 75.9717 44.296C75.281 45.304 74.9357 46.6947 74.9357 48.468ZM100.267 43.064H95.3673V56H92.9313V43.064H88.0873V40.992H100.267V43.064ZM115.998 48.468C115.998 50.9507 115.364 52.8733 114.094 54.236C112.844 55.5987 111.145 56.28 108.998 56.28C107.673 56.28 106.488 55.9813 105.442 55.384C104.416 54.768 103.604 53.8813 103.006 52.724C102.409 51.548 102.11 50.1293 102.11 48.468C102.11 45.9853 102.736 44.072 103.986 42.728C105.237 41.384 106.936 40.712 109.082 40.712C110.445 40.712 111.64 41.02 112.666 41.636C113.712 42.2333 114.524 43.1107 115.102 44.268C115.7 45.4067 115.998 46.8067 115.998 48.468ZM104.658 48.468C104.658 50.2413 105.004 51.6507 105.694 52.696C106.404 53.7227 107.524 54.236 109.054 54.236C110.566 54.236 111.677 53.7227 112.386 52.696C113.096 51.6507 113.45 50.2413 113.45 48.468C113.45 46.6947 113.096 45.304 112.386 44.296C111.677 43.288 110.557 42.784 109.026 42.784C107.496 42.784 106.385 43.288 105.694 44.296C105.004 45.304 104.658 46.6947 104.658 48.468ZM131.971 44.772C131.971 45.7053 131.691 46.4333 131.131 46.956C130.571 47.4787 129.853 47.8333 128.975 48.02V48.132C129.909 48.2627 130.721 48.5987 131.411 49.14C132.102 49.6627 132.447 50.484 132.447 51.604C132.447 52.8733 131.971 53.928 131.019 54.768C130.086 55.5893 128.537 56 126.371 56H119.903V40.992H126.343C127.407 40.992 128.359 41.1133 129.199 41.356C130.058 41.58 130.73 41.972 131.215 42.532C131.719 43.0733 131.971 43.82 131.971 44.772ZM129.479 45.08C129.479 44.3707 129.218 43.8573 128.695 43.54C128.191 43.204 127.361 43.036 126.203 43.036H122.367V47.152H125.755C128.238 47.152 129.479 46.4613 129.479 45.08ZM129.899 51.604C129.899 50.7453 129.573 50.1293 128.919 49.756C128.266 49.3827 127.305 49.196 126.035 49.196H122.367V54.012H126.091C127.323 54.012 128.266 53.8347 128.919 53.48C129.573 53.1067 129.899 52.4813 129.899 51.604ZM138.36 50.148C138.36 50.372 138.351 50.708 138.332 51.156C138.314 51.604 138.286 52.052 138.248 52.5C138.23 52.948 138.211 53.3027 138.192 53.564L146.228 40.992H149.252V56H146.956V47.152C146.956 46.8533 146.956 46.4613 146.956 45.976C146.975 45.4907 146.994 45.0147 147.012 44.548C147.031 44.0627 147.05 43.6987 147.068 43.456L139.088 56H136.036V40.992H138.36V50.148ZM164.388 43.064H159.488V56H157.052V43.064H152.208V40.992H164.388V43.064ZM174.261 47.152C178.162 47.152 180.113 48.5707 180.113 51.408C180.113 52.808 179.637 53.928 178.685 54.768C177.733 55.5893 176.221 56 174.149 56H167.345V40.992H169.809V47.152H174.261ZM177.649 51.548C177.649 50.6333 177.322 50.0173 176.669 49.7C176.034 49.364 175.138 49.196 173.981 49.196H169.809V54.012H174.037C175.082 54.012 175.941 53.8253 176.613 53.452C177.304 53.0787 177.649 52.444 177.649 51.548ZM9.24623 76.992H11.9342L5.52224 84.216L12.4662 92H9.61023L2.83423 84.384V92H0.370234V76.992H2.83423V84.272L9.24623 76.992ZM20.8745 76.74C22.7039 76.74 24.0572 77.1413 24.9345 77.944C25.8119 78.7467 26.2505 80.0253 26.2505 81.78V92H24.4585L23.9825 89.872H23.8705C23.2172 90.6933 22.5265 91.3 21.7985 91.692C21.0892 92.084 20.0999 92.28 18.8305 92.28C17.4679 92.28 16.3385 91.9253 15.4425 91.216C14.5465 90.488 14.0985 89.3587 14.0985 87.828C14.0985 86.3347 14.6865 85.1867 15.8625 84.384C17.0385 83.5627 18.8492 83.1147 21.2945 83.04L23.8425 82.956V82.06C23.8425 80.8093 23.5719 79.9413 23.0305 79.456C22.4892 78.9707 21.7239 78.728 20.7345 78.728C19.9505 78.728 19.2039 78.8493 18.4945 79.092C17.7852 79.316 17.1225 79.5773 16.5065 79.876L15.7505 78.028C16.4039 77.6733 17.1785 77.3747 18.0745 77.132C18.9705 76.8707 19.9039 76.74 20.8745 76.74ZM21.6025 84.748C19.7359 84.8227 18.4385 85.1213 17.7105 85.644C17.0012 86.1667 16.6465 86.904 16.6465 87.856C16.6465 88.696 16.8985 89.312 17.4025 89.704C17.9252 90.096 18.5879 90.292 19.3905 90.292C20.6599 90.292 21.7145 89.9467 22.5545 89.256C23.3945 88.5467 23.8145 87.464 23.8145 86.008V84.664L21.6025 84.748ZM48.8899 76.992L42.7019 84.272L49.4219 92H46.6219L40.1259 84.384V92H37.8299V84.384L31.3339 92H28.5339L35.2539 84.272L29.0659 76.992H31.7539L37.8299 84.272V76.992H40.1259V84.272L46.2299 76.992H48.8899ZM63.0299 76.992V89.928H65.2139V97.208H62.8339V92H52.3899V97.208H50.0379V89.928H51.2419C52.5299 88.1547 53.4912 86.1387 54.1259 83.88C54.7792 81.6027 55.1152 79.3067 55.1339 76.992H63.0299ZM57.3179 78.924C57.2432 80.1933 57.0472 81.5093 56.7299 82.872C56.4125 84.216 56.0019 85.504 55.4979 86.736C55.0125 87.968 54.4432 89.032 53.7899 89.928H60.6499V78.924H57.3179ZM68.1554 92V76.992H70.6194V83.152H74.5114C76.4527 83.152 77.8901 83.5067 78.8234 84.216C79.7567 84.9253 80.2234 85.9893 80.2234 87.408C80.2234 88.808 79.7661 89.928 78.8514 90.768C77.9367 91.5893 76.4527 92 74.3994 92H68.1554ZM82.7154 92V76.992H85.1794V92H82.7154ZM74.1754 90.012C75.2394 90.012 76.1074 89.8347 76.7794 89.48C77.4514 89.1067 77.7874 88.4627 77.7874 87.548C77.7874 86.6333 77.4794 86.0173 76.8634 85.7C76.2474 85.364 75.3607 85.196 74.2034 85.196H70.6194V90.012H74.1754ZM102.1 70.776C101.97 72.176 101.494 73.24 100.672 73.968C99.8697 74.6773 98.5817 75.032 96.8084 75.032C94.979 75.032 93.6817 74.6773 92.9164 73.968C92.1697 73.2587 91.7497 72.1947 91.6564 70.776H93.9524C94.0457 71.784 94.307 72.4653 94.7364 72.82C95.1844 73.156 95.8937 73.324 96.8644 73.324C97.723 73.324 98.395 73.1467 98.8804 72.792C99.3844 72.4187 99.683 71.7467 99.7764 70.776H102.1ZM92.2724 86.148C92.2724 86.372 92.263 86.708 92.2444 87.156C92.2257 87.604 92.1977 88.052 92.1604 88.5C92.1417 88.948 92.123 89.3027 92.1044 89.564L100.14 76.992H103.164V92H100.868V83.152C100.868 82.8533 100.868 82.4613 100.868 81.976C100.887 81.4907 100.906 81.0147 100.924 80.548C100.943 80.0627 100.962 79.6987 100.98 79.456L93.0004 92H89.9484V76.992H92.2724V86.148ZM124.963 76.992V89.928H127.147V97.208H124.767V92H114.323V97.208H111.971V89.928H113.175C114.463 88.1547 115.425 86.1387 116.059 83.88C116.713 81.6027 117.049 79.3067 117.067 76.992H124.963ZM119.251 78.924C119.177 80.1933 118.981 81.5093 118.663 82.872C118.346 84.216 117.935 85.504 117.431 86.736C116.946 87.968 116.377 89.032 115.723 89.928H122.583V78.924H119.251ZM135.885 76.712C137.173 76.712 138.274 76.992 139.189 77.552C140.122 78.112 140.832 78.9053 141.317 79.932C141.821 80.94 142.073 82.1253 142.073 83.488V84.972H131.797C131.834 86.6707 132.264 87.968 133.085 88.864C133.925 89.7413 135.092 90.18 136.585 90.18C137.537 90.18 138.377 90.096 139.105 89.928C139.852 89.7413 140.617 89.48 141.401 89.144V91.3C140.636 91.636 139.88 91.8787 139.133 92.028C138.386 92.196 137.5 92.28 136.473 92.28C135.054 92.28 133.794 91.9907 132.693 91.412C131.61 90.8333 130.761 89.9747 130.145 88.836C129.548 87.6787 129.249 86.2693 129.249 84.608C129.249 82.9653 129.52 81.556 130.061 80.38C130.621 79.204 131.396 78.2987 132.385 77.664C133.393 77.0293 134.56 76.712 135.885 76.712ZM135.857 78.728C134.681 78.728 133.748 79.1107 133.057 79.876C132.385 80.6227 131.984 81.668 131.853 83.012H139.497C139.478 81.7427 139.18 80.716 138.601 79.932C138.022 79.1293 137.108 78.728 135.857 78.728ZM148.358 76.992V83.236H156.506V76.992H158.97V92H156.506V85.308H148.358V92H145.894V76.992H148.358ZM170.638 83.152C174.539 83.152 176.49 84.5707 176.49 87.408C176.49 88.808 176.014 89.928 175.062 90.768C174.11 91.5893 172.598 92 170.526 92H163.722V76.992H166.186V83.152H170.638ZM174.026 87.548C174.026 86.6333 173.699 86.0173 173.046 85.7C172.411 85.364 171.515 85.196 170.358 85.196H166.186V90.012H170.414C171.459 90.012 172.318 89.8253 172.99 89.452C173.68 89.0787 174.026 88.444 174.026 87.548ZM183.148 72.3125C182.866 74.9466 182.615 77.5169 182.396 80.0234C182.187 82.5299 182.027 85.0273 181.918 87.5156H179.785C179.758 85 179.671 82.457 179.525 79.8867C179.38 77.3164 179.161 74.7917 178.869 72.3125H183.148ZM182.697 90.7148C182.697 90.9609 182.647 91.1934 182.547 91.4121C182.456 91.6217 182.328 91.8086 182.164 91.9727C182.009 92.1367 181.822 92.2643 181.604 92.3555C181.385 92.4557 181.152 92.5059 180.906 92.5059C180.651 92.5059 180.414 92.4557 180.195 92.3555C179.977 92.2643 179.785 92.1367 179.621 91.9727C179.457 91.8086 179.325 91.6217 179.225 91.4121C179.133 91.1934 179.088 90.9609 179.088 90.7148C179.088 90.4596 179.133 90.2227 179.225 90.0039C179.325 89.7852 179.457 89.5938 179.621 89.4297C179.785 89.2656 179.977 89.138 180.195 89.0469C180.414 88.9466 180.651 88.8965 180.906 88.8965C181.152 88.8965 181.385 88.9466 181.604 89.0469C181.822 89.138 182.009 89.2656 182.164 89.4297C182.328 89.5938 182.456 89.7852 182.547 90.0039C182.647 90.2227 182.697 90.4596 182.697 90.7148Z" fill="black"/>
</svg>
