<svg width="241" height="23" viewBox="0 0 241 23" fill="none" xmlns="http://www.w3.org/2000/svg">
<path d="M0.980469 18V0.9375H6.55859C8.41016 0.9375 9.80078 1.32031 10.7305 2.08594C11.668 2.85156 12.1367 3.98438 12.1367 5.48438C12.1367 6.28125 11.9102 6.98828 11.457 7.60547C11.0039 8.21484 10.3867 8.6875 9.60547 9.02344C10.5273 9.28125 11.2539 9.77344 11.7852 10.5C12.3242 11.2188 12.5938 12.0781 12.5938 13.0781C12.5938 14.6094 12.0977 15.8125 11.1055 16.6875C10.1133 17.5625 8.71094 18 6.89844 18H0.980469ZM3.23047 10.0195V16.1602H6.94531C7.99219 16.1602 8.81641 15.8906 9.41797 15.3516C10.0273 14.8047 10.332 14.0547 10.332 13.1016C10.332 11.0469 9.21484 10.0195 6.98047 10.0195H3.23047ZM3.23047 8.21484H6.62891C7.61328 8.21484 8.39844 7.96875 8.98438 7.47656C9.57812 6.98438 9.875 6.31641 9.875 5.47266C9.875 4.53516 9.60156 3.85547 9.05469 3.43359C8.50781 3.00391 7.67578 2.78906 6.55859 2.78906H3.23047V8.21484ZM20.6797 16.4648C21.4531 16.4648 22.1289 16.2305 22.707 15.7617C23.2852 15.293 23.6055 14.707 23.668 14.0039H25.7188C25.6797 14.7305 25.4297 15.4219 24.9688 16.0781C24.5078 16.7344 23.8906 17.2578 23.1172 17.6484C22.3516 18.0391 21.5391 18.2344 20.6797 18.2344C18.9531 18.2344 17.5781 17.6602 16.5547 16.5117C15.5391 15.3555 15.0312 13.7773 15.0312 11.7773V11.4141C15.0312 10.1797 15.2578 9.08203 15.7109 8.12109C16.1641 7.16016 16.8125 6.41406 17.6562 5.88281C18.5078 5.35156 19.5117 5.08594 20.668 5.08594C22.0898 5.08594 23.2695 5.51172 24.207 6.36328C25.1523 7.21484 25.6562 8.32031 25.7188 9.67969H23.668C23.6055 8.85938 23.293 8.1875 22.7305 7.66406C22.1758 7.13281 21.4883 6.86719 20.668 6.86719C19.5664 6.86719 18.7109 7.26562 18.1016 8.0625C17.5 8.85156 17.1992 9.99609 17.1992 11.4961V11.9062C17.1992 13.3672 17.5 14.4922 18.1016 15.2812C18.7031 16.0703 19.5625 16.4648 20.6797 16.4648ZM33.418 18.2344C31.6992 18.2344 30.3008 17.6719 29.2227 16.5469C28.1445 15.4141 27.6055 13.9023 27.6055 12.0117V11.6133C27.6055 10.3555 27.8438 9.23438 28.3203 8.25C28.8047 7.25781 29.4766 6.48438 30.3359 5.92969C31.2031 5.36719 32.1406 5.08594 33.1484 5.08594C34.7969 5.08594 36.0781 5.62891 36.9922 6.71484C37.9062 7.80078 38.3633 9.35547 38.3633 11.3789V12.2812H29.7734C29.8047 13.5312 30.168 14.543 30.8633 15.3164C31.5664 16.082 32.457 16.4648 33.5352 16.4648C34.3008 16.4648 34.9492 16.3086 35.4805 15.9961C36.0117 15.6836 36.4766 15.2695 36.875 14.7539L38.1992 15.7852C37.1367 17.418 35.543 18.2344 33.418 18.2344ZM33.1484 6.86719C32.2734 6.86719 31.5391 7.1875 30.9453 7.82812C30.3516 8.46094 29.9844 9.35156 29.8438 10.5H36.1953V10.3359C36.1328 9.23438 35.8359 8.38281 35.3047 7.78125C34.7734 7.17188 34.0547 6.86719 33.1484 6.86719ZM57.207 18H55.0391V7.11328H49.2031V18H47.0234V5.32031H57.207V18ZM71.3984 11.8008C71.3984 13.7305 70.957 15.2852 70.0742 16.4648C69.1914 17.6445 67.9961 18.2344 66.4883 18.2344C64.9492 18.2344 63.7383 17.7461 62.8555 16.7695V22.875H60.6875V5.32031H62.668L62.7734 6.72656C63.6562 5.63281 64.8828 5.08594 66.4531 5.08594C67.9766 5.08594 69.1797 5.66016 70.0625 6.80859C70.9531 7.95703 71.3984 9.55469 71.3984 11.6016V11.8008ZM69.2305 11.5547C69.2305 10.125 68.9258 8.99609 68.3164 8.16797C67.707 7.33984 66.8711 6.92578 65.8086 6.92578C64.4961 6.92578 63.5117 7.50781 62.8555 8.67188V14.7305C63.5039 15.8867 64.4961 16.4648 65.832 16.4648C66.8711 16.4648 67.6953 16.0547 68.3047 15.2344C68.9219 14.4062 69.2305 13.1797 69.2305 11.5547ZM81.9922 18C81.8672 17.75 81.7656 17.3047 81.6875 16.6641C80.6797 17.7109 79.4766 18.2344 78.0781 18.2344C76.8281 18.2344 75.8008 17.8828 74.9961 17.1797C74.1992 16.4688 73.8008 15.5703 73.8008 14.4844C73.8008 13.1641 74.3008 12.1406 75.3008 11.4141C76.3086 10.6797 77.7227 10.3125 79.543 10.3125H81.6523V9.31641C81.6523 8.55859 81.4258 7.95703 80.9727 7.51172C80.5195 7.05859 79.8516 6.83203 78.9688 6.83203C78.1953 6.83203 77.5469 7.02734 77.0234 7.41797C76.5 7.80859 76.2383 8.28125 76.2383 8.83594H74.0586C74.0586 8.20312 74.2812 7.59375 74.7266 7.00781C75.1797 6.41406 75.7891 5.94531 76.5547 5.60156C77.3281 5.25781 78.1758 5.08594 79.0977 5.08594C80.5586 5.08594 81.7031 5.45312 82.5312 6.1875C83.3594 6.91406 83.7891 7.91797 83.8203 9.19922V15.0352C83.8203 16.1992 83.9688 17.125 84.2656 17.8125V18H81.9922ZM78.3945 16.3477C79.0742 16.3477 79.7188 16.1719 80.3281 15.8203C80.9375 15.4688 81.3789 15.0117 81.6523 14.4492V11.8477H79.9531C77.2969 11.8477 75.9688 12.625 75.9688 14.1797C75.9688 14.8594 76.1953 15.3906 76.6484 15.7734C77.1016 16.1562 77.6836 16.3477 78.3945 16.3477ZM87.418 18V5.32031H92.3633C94.0508 5.32031 95.3438 5.61719 96.2422 6.21094C97.1484 6.79688 97.6016 7.66016 97.6016 8.80078C97.6016 9.38672 97.4258 9.91797 97.0742 10.3945C96.7227 10.8633 96.2031 11.2227 95.5156 11.4727C96.2812 11.6523 96.8945 12.0039 97.3555 12.5273C97.8242 13.0508 98.0586 13.6758 98.0586 14.4023C98.0586 15.5664 97.6289 16.457 96.7695 17.0742C95.918 17.6914 94.7109 18 93.1484 18H87.418ZM89.5859 12.4336V16.2539H93.1719C94.0781 16.2539 94.7539 16.0859 95.1992 15.75C95.6523 15.4141 95.8789 14.9414 95.8789 14.332C95.8789 13.0664 94.9492 12.4336 93.0898 12.4336H89.5859ZM89.5859 10.6992H92.3867C94.418 10.6992 95.4336 10.1055 95.4336 8.91797C95.4336 7.73047 94.4727 7.11719 92.5508 7.07812H89.5859V10.6992ZM108.758 18C108.633 17.75 108.531 17.3047 108.453 16.6641C107.445 17.7109 106.242 18.2344 104.844 18.2344C103.594 18.2344 102.566 17.8828 101.762 17.1797C100.965 16.4688 100.566 15.5703 100.566 14.4844C100.566 13.1641 101.066 12.1406 102.066 11.4141C103.074 10.6797 104.488 10.3125 106.309 10.3125H108.418V9.31641C108.418 8.55859 108.191 7.95703 107.738 7.51172C107.285 7.05859 106.617 6.83203 105.734 6.83203C104.961 6.83203 104.312 7.02734 103.789 7.41797C103.266 7.80859 103.004 8.28125 103.004 8.83594H100.824C100.824 8.20312 101.047 7.59375 101.492 7.00781C101.945 6.41406 102.555 5.94531 103.32 5.60156C104.094 5.25781 104.941 5.08594 105.863 5.08594C107.324 5.08594 108.469 5.45312 109.297 6.1875C110.125 6.91406 110.555 7.91797 110.586 9.19922V15.0352C110.586 16.1992 110.734 17.125 111.031 17.8125V18H108.758ZM105.16 16.3477C105.84 16.3477 106.484 16.1719 107.094 15.8203C107.703 15.4688 108.145 15.0117 108.418 14.4492V11.8477H106.719C104.062 11.8477 102.734 12.625 102.734 14.1797C102.734 14.8594 102.961 15.3906 103.414 15.7734C103.867 16.1562 104.449 16.3477 105.16 16.3477ZM126.91 8.78906C126.91 8.19531 126.684 7.72656 126.23 7.38281C125.777 7.03125 125.156 6.85547 124.367 6.85547C123.602 6.85547 122.961 7.05469 122.445 7.45312C121.938 7.85156 121.684 8.32031 121.684 8.85938H119.527C119.527 7.75781 119.988 6.85547 120.91 6.15234C121.832 5.44922 122.984 5.09766 124.367 5.09766C125.852 5.09766 127.008 5.41797 127.836 6.05859C128.664 6.69141 129.078 7.59766 129.078 8.77734C129.078 9.34766 128.906 9.87109 128.562 10.3477C128.219 10.8242 127.73 11.2031 127.098 11.4844C128.574 11.9844 129.312 12.9688 129.312 14.4375C129.312 15.6016 128.863 16.5234 127.965 17.2031C127.066 17.8828 125.867 18.2227 124.367 18.2227C122.906 18.2227 121.699 17.8672 120.746 17.1562C119.801 16.4375 119.328 15.4688 119.328 14.25H121.484C121.484 14.8672 121.758 15.3984 122.305 15.8438C122.859 16.2812 123.547 16.5 124.367 16.5C125.195 16.5 125.863 16.3086 126.371 15.9258C126.879 15.543 127.133 15.0469 127.133 14.4375C127.133 13.7266 126.918 13.2188 126.488 12.9141C126.066 12.6016 125.406 12.4453 124.508 12.4453H122.34V10.6172H124.695C126.172 10.5781 126.91 9.96875 126.91 8.78906ZM139.953 18C139.828 17.75 139.727 17.3047 139.648 16.6641C138.641 17.7109 137.438 18.2344 136.039 18.2344C134.789 18.2344 133.762 17.8828 132.957 17.1797C132.16 16.4688 131.762 15.5703 131.762 14.4844C131.762 13.1641 132.262 12.1406 133.262 11.4141C134.27 10.6797 135.684 10.3125 137.504 10.3125H139.613V9.31641C139.613 8.55859 139.387 7.95703 138.934 7.51172C138.48 7.05859 137.812 6.83203 136.93 6.83203C136.156 6.83203 135.508 7.02734 134.984 7.41797C134.461 7.80859 134.199 8.28125 134.199 8.83594H132.02C132.02 8.20312 132.242 7.59375 132.688 7.00781C133.141 6.41406 133.75 5.94531 134.516 5.60156C135.289 5.25781 136.137 5.08594 137.059 5.08594C138.52 5.08594 139.664 5.45312 140.492 6.1875C141.32 6.91406 141.75 7.91797 141.781 9.19922V15.0352C141.781 16.1992 141.93 17.125 142.227 17.8125V18H139.953ZM136.355 16.3477C137.035 16.3477 137.68 16.1719 138.289 15.8203C138.898 15.4688 139.34 15.0117 139.613 14.4492V11.8477H137.914C135.258 11.8477 133.93 12.625 133.93 14.1797C133.93 14.8594 134.156 15.3906 134.609 15.7734C135.062 16.1562 135.645 16.3477 136.355 16.3477ZM147.418 5.32031V16.2305H152.059V5.32031H154.227V16.2305H158.855V5.32031H161.035V16.2305H162.816L162.605 21.7617H160.66V18H145.238V5.32031H147.418ZM173.234 5.32031H175.402V18H173.234V8.75391L167.387 18H165.219V5.32031H167.387V14.5781L173.234 5.32031ZM181.121 5.32031V16.2305H185.762V5.32031H187.93V16.2305H192.559V5.32031H194.738V16.2305H196.52L196.309 21.7617H194.363V18H178.941V5.32031H181.121ZM204.137 18.2344C202.418 18.2344 201.02 17.6719 199.941 16.5469C198.863 15.4141 198.324 13.9023 198.324 12.0117V11.6133C198.324 10.3555 198.562 9.23438 199.039 8.25C199.523 7.25781 200.195 6.48438 201.055 5.92969C201.922 5.36719 202.859 5.08594 203.867 5.08594C205.516 5.08594 206.797 5.62891 207.711 6.71484C208.625 7.80078 209.082 9.35547 209.082 11.3789V12.2812H200.492C200.523 13.5312 200.887 14.543 201.582 15.3164C202.285 16.082 203.176 16.4648 204.254 16.4648C205.02 16.4648 205.668 16.3086 206.199 15.9961C206.73 15.6836 207.195 15.2695 207.594 14.7539L208.918 15.7852C207.855 17.418 206.262 18.2344 204.137 18.2344ZM203.867 6.86719C202.992 6.86719 202.258 7.1875 201.664 7.82812C201.07 8.46094 200.703 9.35156 200.562 10.5H206.914V10.3359C206.852 9.23438 206.555 8.38281 206.023 7.78125C205.492 7.17188 204.773 6.86719 203.867 6.86719ZM221.961 18H219.793V12.5859H213.969V18H211.789V5.32031H213.969V10.8164H219.793V5.32031H221.961V18ZM227.82 9.69141H231.113C232.551 9.70703 233.688 10.082 234.523 10.8164C235.359 11.5508 235.777 12.5469 235.777 13.8047C235.777 15.0703 235.348 16.0859 234.488 16.8516C233.629 17.6172 232.473 18 231.02 18H225.652V5.32031H227.82V9.69141ZM240.301 18H238.121V5.32031H240.301V18ZM227.82 11.4609V16.2305H231.043C231.855 16.2305 232.484 16.0234 232.93 15.6094C233.375 15.1875 233.598 14.6133 233.598 13.8867C233.598 13.1836 233.379 12.6094 232.941 12.1641C232.512 11.7109 231.906 11.4766 231.125 11.4609H227.82Z" fill="black"/>
</svg>
