<svg width="223" height="104" viewBox="0 0 223 104" fill="none" xmlns="http://www.w3.org/2000/svg">
<path d="M31.5 35H22.5V7H10V35H1V-2.38419e-06H31.5V35ZM51.7734 15.25C50.0068 15.25 48.0068 15.5833 45.7734 16.25V28.25H53.2734C54.6068 28.25 55.2734 27.5833 55.2734 26.25V17C55.2734 16.5 55.1068 16.0833 54.7734 15.75C54.4401 15.4167 54.0234 15.25 53.5234 15.25H51.7734ZM45.7734 35V43.5H37.0234V8.5H44.7734L45.2734 11C46.8401 9.96667 48.4401 9.21666 50.0734 8.75C51.7401 8.25 53.1401 8 54.2734 8H56.5234C58.7901 8 60.6068 8.68333 61.9734 10.05C63.3401 11.4167 64.0234 13.2333 64.0234 15.5V27C64.0234 29.5 63.3068 31.4667 61.8734 32.9C60.4734 34.3 58.5234 35 56.0234 35H45.7734ZM95.5176 27.5C95.5176 30 94.8009 31.9667 93.3676 33.4C91.9676 34.8 90.0176 35.5 87.5176 35.5H76.0176C73.5176 35.5 71.5509 34.8 70.1176 33.4C68.7176 31.9667 68.0176 30 68.0176 27.5V16C68.0176 13.5 68.7176 11.55 70.1176 10.15C71.5509 8.71667 73.5176 8 76.0176 8H87.5176C90.0176 8 91.9676 8.71667 93.3676 10.15C94.8009 11.55 95.5176 13.5 95.5176 16V27.5ZM86.7676 16.75C86.7676 15.4167 86.1009 14.75 84.7676 14.75H78.7676C77.4342 14.75 76.7676 15.4167 76.7676 16.75V26.75C76.7676 28.0833 77.4342 28.75 78.7676 28.75H84.7676C86.1009 28.75 86.7676 28.0833 86.7676 26.75V16.75ZM123.512 34.5C117.278 35.1667 111.778 35.5 107.012 35.5C104.745 35.5 102.928 34.8167 101.562 33.45C100.195 32.0833 99.5117 30.2667 99.5117 28V16.5C99.5117 14 100.212 12.05 101.612 10.65C103.045 9.21667 105.012 8.5 107.512 8.5H123.512V15.25H110.262C108.928 15.25 108.262 15.9167 108.262 17.25V27C108.262 27.5 108.428 27.9167 108.762 28.25C109.095 28.5833 109.512 28.75 110.012 28.75C113.012 28.75 117.512 28.5 123.512 28V34.5ZM142.502 15.25V35H133.752V15.25H125.502V8.5H150.752V15.25H142.502ZM153.771 35V8.5H162.521V16.75H172.271C174.538 16.75 176.355 17.4333 177.721 18.8C179.088 20.1667 179.771 21.9833 179.771 24.25V27.5C179.771 29.7667 179.088 31.5833 177.721 32.95C176.355 34.3167 174.538 35 172.271 35H153.771ZM169.271 28.75C169.771 28.75 170.188 28.5833 170.521 28.25C170.855 27.9167 171.021 27.5 171.021 27V24.8C171.021 24.3 170.855 23.8833 170.521 23.55C170.188 23.2167 169.771 23.05 169.271 23.05H162.521V28.75H169.271ZM191.771 35H183.021V8.5H191.771V35ZM207.039 14.25C205.706 14.25 205.039 14.9167 205.039 16.25V19H213.539V16.25C213.539 14.9167 212.872 14.25 211.539 14.25H207.039ZM221.289 34.5C214.856 35.1667 209.022 35.5 203.789 35.5C201.522 35.5 199.706 34.8167 198.339 33.45C196.972 32.0833 196.289 30.2667 196.289 28V16C196.289 13.5 196.989 11.55 198.389 10.15C199.822 8.71667 201.789 8 204.289 8H214.289C216.789 8 218.739 8.71667 220.139 10.15C221.572 11.55 222.289 13.5 222.289 16V25.25H205.039V27.25C205.039 27.75 205.206 28.1667 205.539 28.5C205.872 28.8333 206.289 29 206.789 29C210.089 29 214.922 28.75 221.289 28.25V34.5ZM15.25 75.25C13.4833 75.25 11.4833 75.5833 9.25 76.25V88.25H16.75C18.0833 88.25 18.75 87.5833 18.75 86.25V77C18.75 76.5 18.5833 76.0833 18.25 75.75C17.9167 75.4167 17.5 75.25 17 75.25H15.25ZM9.25 95V103.5H0.5V68.5H8.25L8.75 71C10.3167 69.9667 11.9167 69.2167 13.55 68.75C15.2167 68.25 16.6167 68 17.75 68H20C22.2667 68 24.0833 68.6833 25.45 70.05C26.8167 71.4167 27.5 73.2333 27.5 75.5V87C27.5 89.5 26.7833 91.4667 25.35 92.9C23.95 94.3 22 95 19.5 95H9.25ZM42.2441 74.25C40.9108 74.25 40.2441 74.9167 40.2441 76.25V79H48.7441V76.25C48.7441 74.9167 48.0775 74.25 46.7441 74.25H42.2441ZM56.4941 94.5C50.0608 95.1667 44.2275 95.5 38.9941 95.5C36.7275 95.5 34.9108 94.8167 33.5441 93.45C32.1775 92.0833 31.4941 90.2667 31.4941 88V76C31.4941 73.5 32.1941 71.55 33.5941 70.15C35.0275 68.7167 36.9941 68 39.4941 68H49.4941C51.9941 68 53.9441 68.7167 55.3441 70.15C56.7775 71.55 57.4941 73.5 57.4941 76V85.25H40.2441V87.25C40.2441 87.75 40.4108 88.1667 40.7441 88.5C41.0775 88.8333 41.4941 89 41.9941 89C45.2941 89 50.1275 88.75 56.4941 88.25V94.5ZM83.4746 95H61.9746V68.5H70.7246V88.25H79.7246V68.5H88.4746V88.25H92.2246V101H83.9746L83.4746 95ZM105.965 74.25C104.632 74.25 103.965 74.9167 103.965 76.25V79H112.465V76.25C112.465 74.9167 111.798 74.25 110.465 74.25H105.965ZM120.215 94.5C113.782 95.1667 107.948 95.5 102.715 95.5C100.448 95.5 98.6315 94.8167 97.2648 93.45C95.8982 92.0833 95.2148 90.2667 95.2148 88V76C95.2148 73.5 95.9148 71.55 97.3148 70.15C98.7482 68.7167 100.715 68 103.215 68H113.215C115.715 68 117.665 68.7167 119.065 70.15C120.498 71.55 121.215 73.5 121.215 76V85.25H103.965V87.25C103.965 87.75 104.132 88.1667 104.465 88.5C104.798 88.8333 105.215 89 105.715 89C109.015 89 113.848 88.75 120.215 88.25V94.5ZM152.195 68.5V95H143.445V75.25H134.445V95H125.695V68.5H152.195ZM172.189 75.25V95H163.439V75.25H155.189V68.5H180.439V75.25H172.189ZM183.459 95V68.5H192.209V76.75H201.959C204.226 76.75 206.042 77.4333 207.409 78.8C208.776 80.1667 209.459 81.9833 209.459 84.25V87.5C209.459 89.7667 208.776 91.5833 207.409 92.95C206.042 94.3167 204.226 95 201.959 95H183.459ZM198.959 88.75C199.459 88.75 199.876 88.5833 200.209 88.25C200.542 87.9167 200.709 87.5 200.709 87V84.8C200.709 84.3 200.542 83.8833 200.209 83.55C199.876 83.2167 199.459 83.05 198.959 83.05H192.209V88.75H198.959ZM221.459 95H212.709V68.5H221.459V95Z" fill="black"/>
</svg>
