<svg width="90" height="49" viewBox="0 0 90 49" fill="none" xmlns="http://www.w3.org/2000/svg">
<path d="M1.06891 0.199999H11.1489C12.8289 0.199999 14.0449 0.583999 14.7969 1.352C15.5649 2.104 15.9489 3.32 15.9489 5V7.4C15.9489 9.08 15.5649 10.304 14.7969 11.072C14.0449 11.824 12.8289 12.2 11.1489 12.2H5.38891V17H1.06891V0.199999ZM11.6289 5C11.6289 4.04 11.1489 3.56 10.1889 3.56H5.38891V8.84H10.1889C11.1489 8.84 11.6289 8.36 11.6289 7.4V5ZM22.788 7.04C22.148 7.04 21.828 7.36 21.828 8V9.32H25.908V8C25.908 7.36 25.588 7.04 24.948 7.04H22.788ZM29.628 16.76C26.54 17.08 23.74 17.24 21.228 17.24C20.14 17.24 19.268 16.912 18.612 16.256C17.956 15.6 17.628 14.728 17.628 13.64V7.88C17.628 6.68 17.964 5.744 18.636 5.072C19.324 4.384 20.268 4.04 21.468 4.04H26.268C27.468 4.04 28.404 4.384 29.076 5.072C29.764 5.744 30.108 6.68 30.108 7.88V12.32H21.828V13.28C21.828 13.52 21.908 13.72 22.068 13.88C22.228 14.04 22.428 14.12 22.668 14.12C24.252 14.12 26.572 14 29.628 13.76V16.76ZM42.5786 17H32.2586V4.28H36.4586V13.76H40.7786V4.28H44.9786V13.76H46.7786V19.88H42.8186L42.5786 17ZM53.3739 7.04C52.7339 7.04 52.4139 7.36 52.4139 8V9.32H56.4939V8C56.4939 7.36 56.1739 7.04 55.5339 7.04H53.3739ZM60.2139 16.76C57.1259 17.08 54.3259 17.24 51.8139 17.24C50.7259 17.24 49.8539 16.912 49.1979 16.256C48.5419 15.6 48.2139 14.728 48.2139 13.64V7.88C48.2139 6.68 48.5499 5.744 49.2219 5.072C49.9099 4.384 50.8539 4.04 52.0539 4.04H56.8539C58.0539 4.04 58.9899 4.384 59.6619 5.072C60.3499 5.744 60.6939 6.68 60.6939 7.88V12.32H52.4139V13.28C52.4139 13.52 52.4939 13.72 52.6539 13.88C52.8139 14.04 53.0139 14.12 53.2539 14.12C54.8379 14.12 57.1579 14 60.2139 13.76V16.76ZM75.5645 4.28V17H71.3645V7.52H67.0445V17H62.8445V4.28H75.5645ZM85.1617 7.52V17H80.9617V7.52H77.0017V4.28H89.1217V7.52H85.1617ZM8.75125 37.96V33.28H12.9513V46H8.75125V41.2H4.43125V46H0.23125V33.28H4.43125V37.96H8.75125ZM20.2684 36.04C19.6284 36.04 19.3084 36.36 19.3084 37V38.32H23.3884V37C23.3884 36.36 23.0684 36.04 22.4284 36.04H20.2684ZM27.1084 45.76C24.0204 46.08 21.2204 46.24 18.7084 46.24C17.6204 46.24 16.7484 45.912 16.0924 45.256C15.4364 44.6 15.1084 43.728 15.1084 42.64V36.88C15.1084 35.68 15.4444 34.744 16.1164 34.072C16.8044 33.384 17.7484 33.04 18.9484 33.04H23.7484C24.9484 33.04 25.8844 33.384 26.5564 34.072C27.2444 34.744 27.5884 35.68 27.5884 36.88V41.32H19.3084V42.28C19.3084 42.52 19.3884 42.72 19.5484 42.88C19.7084 43.04 19.9084 43.12 20.1484 43.12C21.7324 43.12 24.0524 43 27.1084 42.76V45.76ZM35.3791 40C35.2991 41.12 34.9791 42.04 34.4191 42.76H38.6191V36.52H35.6191L35.3791 40ZM42.8191 33.28V42.76H44.6191V48.88H40.6351L40.3951 46H33.0031L32.7631 48.88H28.7791V42.76H30.3391C30.9791 42.008 31.3391 41.168 31.4191 40.24L31.8991 33.28H42.8191ZM51.2294 36.04C50.5894 36.04 50.2694 36.36 50.2694 37V38.32H54.3494V37C54.3494 36.36 54.0294 36.04 53.3894 36.04H51.2294ZM58.0694 45.76C54.9814 46.08 52.1814 46.24 49.6694 46.24C48.5814 46.24 47.7094 45.912 47.0534 45.256C46.3974 44.6 46.0694 43.728 46.0694 42.64V36.88C46.0694 35.68 46.4054 34.744 47.0774 34.072C47.7654 33.384 48.7094 33.04 49.9094 33.04H54.7094C55.9094 33.04 56.8454 33.384 57.5174 34.072C58.2054 34.744 58.5494 35.68 58.5494 36.88V41.32H50.2694V42.28C50.2694 42.52 50.3494 42.72 50.5094 42.88C50.6694 43.04 50.8694 43.12 51.1094 43.12C52.6934 43.12 55.0134 43 58.0694 42.76V45.76ZM62.14 46.24C61.452 46.24 60.652 46.16 59.74 46V42.88H60.7C61.308 42.88 61.628 42.56 61.66 41.92L62.14 33.28H73.66V46H69.46V36.52H66.1L65.74 42.64C65.676 43.728 65.316 44.6 64.66 45.256C64.004 45.912 63.164 46.24 62.14 46.24ZM84.3316 33.28H88.7716V46H84.5716V39.04L80.4916 46H76.0516V33.28H80.2516V40.24L84.3316 33.28Z" fill="#362B19"/>
</svg>
