<svg width="137" height="27" viewBox="0 0 137 27" fill="none" xmlns="http://www.w3.org/2000/svg">
<path d="M22.1463 26H15.6663V5.84H6.66633V26H0.186329V0.799998H22.1463V26ZM52.0432 20.6C52.0432 22.4 51.5272 23.816 50.4952 24.848C49.4872 25.856 48.0832 26.36 46.2832 26.36H38.0032C36.2032 26.36 34.7872 25.856 33.7552 24.848C32.7472 23.816 32.2432 22.4 32.2432 20.6V12.32C32.2432 10.52 32.7472 9.116 33.7552 8.108C34.7872 7.076 36.2032 6.56 38.0032 6.56H46.2832C48.0832 6.56 49.4872 7.076 50.4952 8.108C51.5272 9.116 52.0432 10.52 52.0432 12.32V20.6ZM45.7432 12.86C45.7432 11.9 45.2632 11.42 44.3032 11.42H39.9832C39.0232 11.42 38.5432 11.9 38.5432 12.86V20.06C38.5432 21.02 39.0232 21.5 39.9832 21.5H44.3032C45.2632 21.5 45.7432 21.02 45.7432 20.06V12.86ZM74.179 6.92H80.839V26H74.539V15.56L68.419 26H61.759V6.92H68.059V17.36L74.179 6.92ZM107.835 25.64C103.347 26.12 99.3868 26.36 95.9548 26.36C94.3228 26.36 93.0148 25.868 92.0308 24.884C91.0468 23.9 90.5548 22.592 90.5548 20.96V12.68C90.5548 10.88 91.0588 9.476 92.0668 8.468C93.0988 7.436 94.5148 6.92 96.3148 6.92H107.835V11.78H98.2948C97.3348 11.78 96.8548 12.26 96.8548 13.22V20.24C96.8548 20.6 96.9748 20.9 97.2148 21.14C97.4548 21.38 97.7548 21.5 98.1148 21.5C100.275 21.5 103.515 21.32 107.835 20.96V25.64ZM126.188 18.8H123.488V26H117.188V6.92H123.488V13.94H126.368L128.348 9.98C129.068 8.444 130.196 7.4 131.732 6.848C132.284 6.656 132.812 6.56 133.316 6.56C134.132 6.56 134.876 6.62 135.548 6.74L136.448 6.92V11.78H135.188C134.372 11.78 133.772 12.14 133.388 12.86L131.588 16.46L136.988 26H130.148L126.188 18.8Z" fill="black"/>
</svg>
