<svg width="350" height="130" viewBox="0 0 350 130" fill="none" xmlns="http://www.w3.org/2000/svg">
<g filter="url(#filter0_d)">
<rect x="18" y="18" width="300" height="80" rx="40" fill="#FFF3E2"/>
</g>
<path d="M39.7117 48.24C38.5757 48.24 37.5597 48.008 36.6637 47.544C35.7837 47.08 35.0877 46.36 34.5757 45.384C34.0797 44.408 33.8317 43.16 33.8317 41.64C33.8317 40.056 34.0957 38.768 34.6237 37.776C35.1517 36.784 35.8637 36.056 36.7597 35.592C37.6717 35.128 38.7037 34.896 39.8557 34.896C40.5117 34.896 41.1437 34.968 41.7517 35.112C42.3597 35.24 42.8557 35.4 43.2397 35.592L42.5917 37.344C42.2077 37.2 41.7597 37.064 41.2477 36.936C40.7357 36.808 40.2557 36.744 39.8077 36.744C37.2797 36.744 36.0157 38.368 36.0157 41.616C36.0157 43.168 36.3197 44.36 36.9277 45.192C37.5517 46.008 38.4717 46.416 39.6877 46.416C40.3917 46.416 41.0077 46.344 41.5357 46.2C42.0797 46.056 42.5757 45.88 43.0237 45.672V47.544C42.5917 47.768 42.1117 47.936 41.5837 48.048C41.0717 48.176 40.4477 48.24 39.7117 48.24ZM57.267 41.544C57.267 43.672 56.723 45.32 55.635 46.488C54.563 47.656 53.107 48.24 51.267 48.24C50.131 48.24 49.115 47.984 48.219 47.472C47.339 46.944 46.643 46.184 46.131 45.192C45.619 44.184 45.363 42.968 45.363 41.544C45.363 39.416 45.899 37.776 46.971 36.624C48.043 35.472 49.499 34.896 51.339 34.896C52.507 34.896 53.531 35.16 54.411 35.688C55.307 36.2 56.003 36.952 56.499 37.944C57.011 38.92 57.267 40.12 57.267 41.544ZM47.547 41.544C47.547 43.064 47.843 44.272 48.435 45.168C49.043 46.048 50.003 46.488 51.315 46.488C52.611 46.488 53.563 46.048 54.171 45.168C54.779 44.272 55.083 43.064 55.083 41.544C55.083 40.024 54.779 38.832 54.171 37.968C53.563 37.104 52.603 36.672 51.291 36.672C49.979 36.672 49.027 37.104 48.435 37.968C47.843 38.832 47.547 40.024 47.547 41.544ZM63.9982 34.896C65.4702 34.896 66.6382 35.192 67.5022 35.784C68.3822 36.36 68.8222 37.192 68.8222 38.28C68.8222 39.064 68.6062 39.688 68.1742 40.152C67.7422 40.6 67.1502 40.928 66.3982 41.136V41.232C66.9102 41.376 67.3822 41.576 67.8142 41.832C68.2462 42.088 68.5902 42.424 68.8462 42.84C69.1182 43.256 69.2542 43.792 69.2542 44.448C69.2542 45.52 68.8062 46.424 67.9102 47.16C67.0302 47.88 65.6462 48.24 63.7582 48.24C62.8302 48.24 61.9902 48.16 61.2382 48C60.4862 47.856 59.8622 47.656 59.3662 47.4V45.504C59.9102 45.76 60.5502 45.992 61.2862 46.2C62.0382 46.408 62.8542 46.512 63.7342 46.512C64.6942 46.512 65.5022 46.352 66.1582 46.032C66.8302 45.696 67.1662 45.128 67.1662 44.328C67.1662 42.888 65.9422 42.168 63.4942 42.168H61.7662V40.44H63.1582C64.2622 40.44 65.1422 40.296 65.7982 40.008C66.4702 39.704 66.8062 39.192 66.8062 38.472C66.8062 37.864 66.5502 37.408 66.0382 37.104C65.5422 36.8 64.8222 36.648 63.8782 36.648C63.1742 36.648 62.5502 36.72 62.0062 36.864C61.4782 36.992 60.8942 37.192 60.2542 37.464L59.5102 35.784C60.8542 35.192 62.3502 34.896 63.9982 34.896ZM81.9318 35.136V46.224H83.8038V52.464H81.7638V48H72.8118V52.464H70.7958V46.224H71.8278C72.9318 44.704 73.7558 42.976 74.2998 41.04C74.8598 39.088 75.1478 37.12 75.1638 35.136H81.9318ZM77.0358 36.792C76.9718 37.88 76.8038 39.008 76.5318 40.176C76.2598 41.328 75.9078 42.432 75.4758 43.488C75.0598 44.544 74.5718 45.456 74.0118 46.224H79.8918V36.792H77.0358ZM91.1972 34.92C92.7652 34.92 93.9252 35.264 94.6772 35.952C95.4292 36.64 95.8052 37.736 95.8052 39.24V48H94.2692L93.8612 46.176H93.7652C93.2052 46.88 92.6132 47.4 91.9892 47.736C91.3812 48.072 90.5332 48.24 89.4452 48.24C88.2772 48.24 87.3092 47.936 86.5412 47.328C85.7732 46.704 85.3892 45.736 85.3892 44.424C85.3892 43.144 85.8932 42.16 86.9012 41.472C87.9092 40.768 89.4612 40.384 91.5572 40.32L93.7412 40.248V39.48C93.7412 38.408 93.5092 37.664 93.0452 37.248C92.5812 36.832 91.9252 36.624 91.0772 36.624C90.4052 36.624 89.7652 36.728 89.1572 36.936C88.5492 37.128 87.9812 37.352 87.4532 37.608L86.8052 36.024C87.3652 35.72 88.0292 35.464 88.7972 35.256C89.5652 35.032 90.3652 34.92 91.1972 34.92ZM91.8212 41.784C90.2212 41.848 89.1092 42.104 88.4852 42.552C87.8772 43 87.5732 43.632 87.5732 44.448C87.5732 45.168 87.7892 45.696 88.2212 46.032C88.6692 46.368 89.2372 46.536 89.9252 46.536C91.0132 46.536 91.9172 46.24 92.6372 45.648C93.3572 45.04 93.7172 44.112 93.7172 42.864V41.712L91.8212 41.784ZM108.658 36.912H104.458V48H102.37V36.912H98.2183V35.136H108.658V36.912ZM117.12 40.416C120.464 40.416 122.136 41.632 122.136 44.064C122.136 45.264 121.728 46.224 120.912 46.944C120.096 47.648 118.8 48 117.024 48H111.192V35.136H113.304V40.416H117.12ZM120.024 44.184C120.024 43.4 119.744 42.872 119.184 42.6C118.64 42.312 117.872 42.168 116.88 42.168H113.304V46.296H116.928C117.824 46.296 118.56 46.136 119.136 45.816C119.728 45.496 120.024 44.952 120.024 44.184ZM135.641 48.24C134.505 48.24 133.489 48.008 132.593 47.544C131.713 47.08 131.017 46.36 130.505 45.384C130.009 44.408 129.761 43.16 129.761 41.64C129.761 40.056 130.025 38.768 130.553 37.776C131.081 36.784 131.793 36.056 132.689 35.592C133.601 35.128 134.633 34.896 135.785 34.896C136.441 34.896 137.073 34.968 137.681 35.112C138.289 35.24 138.785 35.4 139.169 35.592L138.521 37.344C138.137 37.2 137.689 37.064 137.177 36.936C136.665 36.808 136.185 36.744 135.737 36.744C133.209 36.744 131.945 38.368 131.945 41.616C131.945 43.168 132.249 44.36 132.857 45.192C133.481 46.008 134.401 46.416 135.617 46.416C136.321 46.416 136.937 46.344 137.465 46.2C138.009 46.056 138.505 45.88 138.953 45.672V47.544C138.521 47.768 138.041 47.936 137.513 48.048C137.001 48.176 136.377 48.24 135.641 48.24ZM152.357 38.376C152.357 39.176 152.117 39.8 151.637 40.248C151.157 40.696 150.541 41 149.789 41.16V41.256C150.589 41.368 151.285 41.656 151.877 42.12C152.469 42.568 152.765 43.272 152.765 44.232C152.765 45.32 152.357 46.224 151.541 46.944C150.741 47.648 149.413 48 147.557 48H142.013V35.136H147.533C148.445 35.136 149.261 35.24 149.981 35.448C150.717 35.64 151.293 35.976 151.709 36.456C152.141 36.92 152.357 37.56 152.357 38.376ZM150.221 38.64C150.221 38.032 149.997 37.592 149.549 37.32C149.117 37.032 148.405 36.888 147.413 36.888H144.125V40.416H147.029C149.157 40.416 150.221 39.824 150.221 38.64ZM150.581 44.232C150.581 43.496 150.301 42.968 149.741 42.648C149.181 42.328 148.357 42.168 147.269 42.168H144.125V46.296H147.317C148.373 46.296 149.181 46.144 149.741 45.84C150.301 45.52 150.581 44.984 150.581 44.232ZM167.025 41.544C167.025 43.672 166.481 45.32 165.393 46.488C164.321 47.656 162.865 48.24 161.025 48.24C159.889 48.24 158.873 47.984 157.977 47.472C157.097 46.944 156.401 46.184 155.889 45.192C155.377 44.184 155.121 42.968 155.121 41.544C155.121 39.416 155.657 37.776 156.729 36.624C157.801 35.472 159.257 34.896 161.097 34.896C162.265 34.896 163.289 35.16 164.169 35.688C165.065 36.2 165.761 36.952 166.257 37.944C166.769 38.92 167.025 40.12 167.025 41.544ZM157.305 41.544C157.305 43.064 157.601 44.272 158.193 45.168C158.801 46.048 159.761 46.488 161.073 46.488C162.369 46.488 163.321 46.048 163.929 45.168C164.537 44.272 164.841 43.064 164.841 41.544C164.841 40.024 164.537 38.832 163.929 37.968C163.321 37.104 162.361 36.672 161.049 36.672C159.737 36.672 158.785 37.104 158.193 37.968C157.601 38.832 157.305 40.024 157.305 41.544ZM180.788 29.808C180.676 31.008 180.268 31.92 179.564 32.544C178.876 33.152 177.772 33.456 176.252 33.456C174.684 33.456 173.572 33.152 172.916 32.544C172.276 31.936 171.916 31.024 171.836 29.808H173.804C173.884 30.672 174.108 31.256 174.476 31.56C174.86 31.848 175.468 31.992 176.3 31.992C177.036 31.992 177.612 31.84 178.028 31.536C178.46 31.216 178.716 30.64 178.796 29.808H180.788ZM172.364 42.984C172.364 43.176 172.356 43.464 172.34 43.848C172.324 44.232 172.3 44.616 172.268 45C172.252 45.384 172.236 45.688 172.22 45.912L179.108 35.136H181.7V48H179.732V40.416C179.732 40.16 179.732 39.824 179.732 39.408C179.748 38.992 179.764 38.584 179.78 38.184C179.796 37.768 179.812 37.456 179.828 37.248L172.988 48H170.372V35.136H172.364V42.984ZM195.993 48.24C194.857 48.24 193.841 48.008 192.945 47.544C192.065 47.08 191.369 46.36 190.857 45.384C190.361 44.408 190.113 43.16 190.113 41.64C190.113 40.056 190.377 38.768 190.905 37.776C191.433 36.784 192.145 36.056 193.041 35.592C193.953 35.128 194.985 34.896 196.137 34.896C196.793 34.896 197.425 34.968 198.033 35.112C198.641 35.24 199.137 35.4 199.521 35.592L198.873 37.344C198.489 37.2 198.041 37.064 197.529 36.936C197.017 36.808 196.537 36.744 196.089 36.744C193.561 36.744 192.297 38.368 192.297 41.616C192.297 43.168 192.601 44.36 193.209 45.192C193.833 46.008 194.753 46.416 195.969 46.416C196.673 46.416 197.289 46.344 197.817 46.2C198.361 46.056 198.857 45.88 199.305 45.672V47.544C198.873 47.768 198.393 47.936 197.865 48.048C197.353 48.176 196.729 48.24 195.993 48.24ZM213.236 35.136V48H211.124V36.936H204.476V48H202.364V35.136H213.236ZM219.333 42.984C219.333 43.176 219.325 43.464 219.309 43.848C219.293 44.232 219.269 44.616 219.237 45C219.221 45.384 219.205 45.688 219.189 45.912L226.077 35.136H228.669V48H226.701V40.416C226.701 40.16 226.701 39.824 226.701 39.408C226.717 38.992 226.733 38.584 226.749 38.184C226.765 37.768 226.781 37.456 226.797 37.248L219.957 48H217.341V35.136H219.333V42.984ZM237.923 48.24C236.787 48.24 235.771 48.008 234.875 47.544C233.995 47.08 233.299 46.36 232.787 45.384C232.291 44.408 232.043 43.16 232.043 41.64C232.043 40.056 232.307 38.768 232.835 37.776C233.363 36.784 234.075 36.056 234.971 35.592C235.883 35.128 236.915 34.896 238.067 34.896C238.723 34.896 239.355 34.968 239.963 35.112C240.571 35.24 241.067 35.4 241.451 35.592L240.803 37.344C240.419 37.2 239.971 37.064 239.459 36.936C238.947 36.808 238.467 36.744 238.019 36.744C235.491 36.744 234.227 38.368 234.227 41.616C234.227 43.168 234.531 44.36 235.139 45.192C235.763 46.008 236.683 46.416 237.899 46.416C238.603 46.416 239.219 46.344 239.747 46.2C240.291 46.056 240.787 45.88 241.235 45.672V47.544C240.803 47.768 240.323 47.936 239.795 48.048C239.283 48.176 238.659 48.24 237.923 48.24ZM255.478 41.544C255.478 43.672 254.934 45.32 253.846 46.488C252.774 47.656 251.318 48.24 249.478 48.24C248.342 48.24 247.326 47.984 246.43 47.472C245.55 46.944 244.854 46.184 244.342 45.192C243.83 44.184 243.574 42.968 243.574 41.544C243.574 39.416 244.11 37.776 245.182 36.624C246.254 35.472 247.71 34.896 249.55 34.896C250.718 34.896 251.742 35.16 252.622 35.688C253.518 36.2 254.214 36.952 254.71 37.944C255.222 38.92 255.478 40.12 255.478 41.544ZM245.758 41.544C245.758 43.064 246.054 44.272 246.646 45.168C247.254 46.048 248.214 46.488 249.526 46.488C250.822 46.488 251.774 46.048 252.382 45.168C252.99 44.272 253.294 43.064 253.294 41.544C253.294 40.024 252.99 38.832 252.382 37.968C251.774 37.104 250.814 36.672 249.502 36.672C248.19 36.672 247.238 37.104 246.646 37.968C246.054 38.832 245.758 40.024 245.758 41.544ZM266.433 35.136H268.737L263.241 41.328L269.193 48H266.745L260.937 41.472V48H258.825V35.136H260.937V41.376L266.433 35.136ZM103.39 65.896C104.974 65.896 106.246 66.448 107.206 67.552C108.182 68.656 108.67 70.32 108.67 72.544C108.67 74.736 108.182 76.4 107.206 77.536C106.246 78.672 104.966 79.24 103.366 79.24C102.374 79.24 101.55 79.056 100.894 78.688C100.254 78.304 99.7505 77.864 99.3825 77.368H99.2385C99.2705 77.64 99.3025 77.984 99.3345 78.4C99.3665 78.816 99.3825 79.176 99.3825 79.48V84.76H97.2705V66.136H98.9985L99.2865 67.888H99.3825C99.7665 67.328 100.27 66.856 100.894 66.472C101.518 66.088 102.35 65.896 103.39 65.896ZM103.006 67.672C101.694 67.672 100.766 68.04 100.222 68.776C99.6945 69.512 99.4145 70.632 99.3825 72.136V72.544C99.3825 74.128 99.6385 75.352 100.15 76.216C100.678 77.064 101.646 77.488 103.054 77.488C103.838 77.488 104.478 77.272 104.974 76.84C105.486 76.408 105.862 75.824 106.102 75.088C106.358 74.336 106.486 73.48 106.486 72.52C106.486 71.048 106.198 69.872 105.622 68.992C105.062 68.112 104.19 67.672 103.006 67.672ZM117.004 65.896C118.108 65.896 119.052 66.136 119.836 66.616C120.636 67.096 121.244 67.776 121.66 68.656C122.092 69.52 122.308 70.536 122.308 71.704V72.976H113.5C113.532 74.432 113.9 75.544 114.604 76.312C115.324 77.064 116.324 77.44 117.604 77.44C118.42 77.44 119.14 77.368 119.764 77.224C120.404 77.064 121.06 76.84 121.732 76.552V78.4C121.076 78.688 120.428 78.896 119.788 79.024C119.148 79.168 118.388 79.24 117.508 79.24C116.292 79.24 115.212 78.992 114.268 78.496C113.34 78 112.612 77.264 112.084 76.288C111.572 75.296 111.316 74.088 111.316 72.664C111.316 71.256 111.548 70.048 112.012 69.04C112.492 68.032 113.156 67.256 114.004 66.712C114.868 66.168 115.868 65.896 117.004 65.896ZM116.98 67.624C115.972 67.624 115.172 67.952 114.58 68.608C114.004 69.248 113.66 70.144 113.548 71.296H120.1C120.084 70.208 119.828 69.328 119.332 68.656C118.836 67.968 118.052 67.624 116.98 67.624ZM138.279 83.464H136.215V79H125.583V66.136H127.695V77.224H134.343V66.136H136.455V77.248H138.279V83.464ZM145.715 65.896C146.819 65.896 147.763 66.136 148.547 66.616C149.347 67.096 149.955 67.776 150.371 68.656C150.803 69.52 151.019 70.536 151.019 71.704V72.976H142.211C142.243 74.432 142.611 75.544 143.315 76.312C144.035 77.064 145.035 77.44 146.315 77.44C147.131 77.44 147.851 77.368 148.475 77.224C149.115 77.064 149.771 76.84 150.443 76.552V78.4C149.787 78.688 149.139 78.896 148.499 79.024C147.859 79.168 147.099 79.24 146.219 79.24C145.003 79.24 143.923 78.992 142.979 78.496C142.051 78 141.323 77.264 140.795 76.288C140.283 75.296 140.027 74.088 140.027 72.664C140.027 71.256 140.259 70.048 140.723 69.04C141.203 68.032 141.867 67.256 142.715 66.712C143.579 66.168 144.579 65.896 145.715 65.896ZM145.691 67.624C144.683 67.624 143.883 67.952 143.291 68.608C142.715 69.248 142.371 70.144 142.259 71.296H148.811C148.795 70.208 148.539 69.328 148.043 68.656C147.547 67.968 146.763 67.624 145.691 67.624ZM165.166 66.136V79H163.054V67.936H156.406V79H154.294V66.136H165.166ZM178.15 67.912H173.95V79H171.862V67.912H167.71V66.136H178.15V67.912ZM191.634 72.544C191.634 74.672 191.09 76.32 190.002 77.488C188.93 78.656 187.474 79.24 185.634 79.24C184.498 79.24 183.482 78.984 182.586 78.472C181.706 77.944 181.01 77.184 180.498 76.192C179.986 75.184 179.73 73.968 179.73 72.544C179.73 70.416 180.266 68.776 181.338 67.624C182.41 66.472 183.866 65.896 185.706 65.896C186.874 65.896 187.898 66.16 188.778 66.688C189.674 67.2 190.37 67.952 190.866 68.944C191.378 69.92 191.634 71.12 191.634 72.544ZM181.914 72.544C181.914 74.064 182.21 75.272 182.802 76.168C183.41 77.048 184.37 77.488 185.682 77.488C186.978 77.488 187.93 77.048 188.538 76.168C189.146 75.272 189.45 74.064 189.45 72.544C189.45 71.024 189.146 69.832 188.538 68.968C187.93 68.104 186.97 67.672 185.658 67.672C184.346 67.672 183.394 68.104 182.802 68.968C182.21 69.832 181.914 71.024 181.914 72.544ZM205.325 69.376C205.325 70.176 205.085 70.8 204.605 71.248C204.125 71.696 203.509 72 202.757 72.16V72.256C203.557 72.368 204.253 72.656 204.845 73.12C205.437 73.568 205.733 74.272 205.733 75.232C205.733 76.32 205.325 77.224 204.509 77.944C203.709 78.648 202.381 79 200.525 79H194.981V66.136H200.501C201.413 66.136 202.229 66.24 202.949 66.448C203.685 66.64 204.261 66.976 204.677 67.456C205.109 67.92 205.325 68.56 205.325 69.376ZM203.189 69.64C203.189 69.032 202.965 68.592 202.517 68.32C202.085 68.032 201.373 67.888 200.381 67.888H197.093V71.416H199.997C202.125 71.416 203.189 70.824 203.189 69.64ZM203.549 75.232C203.549 74.496 203.269 73.968 202.709 73.648C202.149 73.328 201.325 73.168 200.237 73.168H197.093V77.296H200.285C201.341 77.296 202.149 77.144 202.709 76.84C203.269 76.52 203.549 75.984 203.549 75.232Z" fill="black"/>
<defs>
<filter id="filter0_d" x="0" y="0" width="350" height="130" filterUnits="userSpaceOnUse" color-interpolation-filters="sRGB">
<feFlood flood-opacity="0" result="BackgroundImageFix"/>
<feColorMatrix in="SourceAlpha" type="matrix" values="0 0 0 0 0 0 0 0 0 0 0 0 0 0 0 0 0 0 127 0"/>
<feOffset dx="7" dy="7"/>
<feGaussianBlur stdDeviation="12.5"/>
<feColorMatrix type="matrix" values="0 0 0 0 0 0 0 0 0 0 0 0 0 0 0 0 0 0 0.3 0"/>
<feBlend mode="normal" in2="BackgroundImageFix" result="effect1_dropShadow"/>
<feBlend mode="normal" in="SourceGraphic" in2="effect1_dropShadow" result="shape"/>
</filter>
</defs>
</svg>
